<svg xmlns="http://www.w3.org/2000/svg" version="1.1" xmlns:xlink="http://www.w3.org/1999/xlink" xmlns:svgjs="http://svgjs.com/svgjs" width="1440" height="512" preserveAspectRatio="none" viewBox="0 0 1440 512">
    <g mask="url(&quot;#SvgjsMask1072&quot;)" fill="none">
        <rect width="1440" height="512" x="0" y="0" fill="#0e2a47"></rect>
        <path d="M55 512L567 0L702 0L190 512z" fill="url(#SvgjsLinearGradient1073)"></path>
        <path d="M335.8 512L847.8 0L1156.8 0L644.8 512z" fill="url(#SvgjsLinearGradient1073)"></path>
        <path d="M696.6 512L1208.6 0L1537.1 0L1025.1 512z" fill="url(#SvgjsLinearGradient1073)"></path>
        <path d="M1393 512L881 0L716 0L1228 512z" fill="url(#SvgjsLinearGradient1074)"></path>
        <path d="M1087.2 512L575.2 0L477.70000000000005 0L989.7 512z" fill="url(#SvgjsLinearGradient1074)"></path>
        <path d="M788.4 512L276.4 0L-196.10000000000002 0L315.9 512z" fill="url(#SvgjsLinearGradient1074)"></path>
        <path d="M1095.7087663648454 512L1440 167.70876636484525L1440 512z" fill="url(#SvgjsLinearGradient1073)"></path>
        <path d="M0 512L344.29123363515475 512L 0 167.70876636484525z" fill="url(#SvgjsLinearGradient1074)"></path>
    </g>
    <defs>
        <mask id="SvgjsMask1072">
            <rect width="1440" height="512" fill="#ffffff"></rect>
        </mask>
        <linearGradient x1="0%" y1="100%" x2="100%" y2="0%" id="SvgjsLinearGradient1073">
            <stop stop-color="rgba(0, 83, 255, 0.2)" offset="0"></stop>
            <stop stop-opacity="0" stop-color="rgba(0, 83, 255, 0.2)" offset="0.66"></stop>
        </linearGradient>
        <linearGradient x1="100%" y1="100%" x2="0%" y2="0%" id="SvgjsLinearGradient1074">
            <stop stop-color="rgba(0, 83, 255, 0.2)" offset="0"></stop>
            <stop stop-opacity="0" stop-color="rgba(0, 83, 255, 0.2)" offset="0.66"></stop>
        </linearGradient>
    </defs>
</svg>