<svg xmlns="http://www.w3.org/2000/svg" xmlns:xlink="http://www.w3.org/1999/xlink" width="487" height="398" viewBox="0 0 487 398">
  <defs>
    <linearGradient id="pest-control-b" x1="50%" x2="50%" y1="-44.881%" y2="99.124%">
      <stop offset="0%" stop-color="#E9F4FB" stop-opacity="0"/>
      <stop offset="100%" stop-color="#D8E8F1"/>
    </linearGradient>
    <path id="pest-control-a" d="M126.189984,217.631565 C146.502917,179.873439 144.217916,118.513146 224.456888,87.7955965 C304.695859,57.0780473 358.225117,119.315216 440.32973,140.163374 C523.812929,161.361585 579.945953,209.802168 578.32973,284.58915 C576.863741,352.424383 550.705635,425.032794 468.120972,443.39849 C361.120983,467.19382 368.151477,421.384154 244.253936,437.912264 C96.6921872,457.597213 76.6337824,309.747721 126.189984,217.631565 Z"/>
    <linearGradient id="pest-control-c" x1="100%" x2="0%" y1="50%" y2="50%">
      <stop offset="0%" stop-color="#55ECB3"/>
      <stop offset="100%" stop-color="#48C898"/>
    </linearGradient>
    <linearGradient id="pest-control-e" x1="50%" x2="50%" y1="0%" y2="100%">
      <stop offset="0%" stop-color="#E2ECFA"/>
      <stop offset="100%" stop-color="#9DB6F9"/>
    </linearGradient>
    <linearGradient id="pest-control-f" x1="50%" x2="50%" y1="0%" y2="100%">
      <stop offset="0%" stop-color="#FF9F42"/>
      <stop offset="100%" stop-color="#FFD058"/>
    </linearGradient>
    <path id="pest-control-g" d="M30.7331744,0.269857917 C40.3545197,1.31121147 43.5522533,8.4492017 37.8753036,16.2113418 C32.1975261,23.9751375 19.7964788,29.4244463 10.1743057,28.3830928 C0.552960393,27.3417392 -2.64477314,20.203749 3.03217653,12.4407811"/>
    <radialGradient id="pest-control-h" cx="49.999%" cy="50%" r="61.77%" fx="49.999%" fy="50%" gradientTransform="matrix(.69703 .1076 -.07497 .98802 .189 -.048)">
      <stop offset="0%" stop-color="#99A0BA"/>
      <stop offset="100%" stop-color="#FFF"/>
    </radialGradient>
    <linearGradient id="pest-control-j" x1="0%" x2="100%" y1="50%" y2="50%">
      <stop offset="0%" stop-color="#55ECB3"/>
      <stop offset="100%" stop-color="#48C898"/>
    </linearGradient>
    <linearGradient id="pest-control-k" x1="100%" x2="0%" y1="50%" y2="50%">
      <stop offset="0%" stop-color="#567396"/>
      <stop offset="100%" stop-color="#2B3F5D"/>
    </linearGradient>
    <linearGradient id="pest-control-l" x1="0%" x2="100%" y1="50%" y2="50%">
      <stop offset="0%" stop-color="#567396"/>
      <stop offset="100%" stop-color="#2B3F5D"/>
    </linearGradient>
    <linearGradient id="pest-control-m" x1="100%" x2="0%" y1="50%" y2="50%">
      <stop offset="0%" stop-color="#567396"/>
      <stop offset="100%" stop-color="#2B3F5D"/>
    </linearGradient>
    <linearGradient id="pest-control-n" x1="0%" x2="100%" y1="50%" y2="50%">
      <stop offset="0%" stop-color="#567396"/>
      <stop offset="100%" stop-color="#2B3F5D"/>
    </linearGradient>
    <linearGradient id="pest-control-o" x1="0%" x2="100%" y1="50%" y2="50%">
      <stop offset="0%" stop-color="#55ECB3"/>
      <stop offset="100%" stop-color="#48C898"/>
    </linearGradient>
    <linearGradient id="pest-control-p" x1="100%" x2="0%" y1="50%" y2="50%">
      <stop offset="0%" stop-color="#F4DFC5"/>
      <stop offset="100%" stop-color="#E5BC93"/>
    </linearGradient>
    <linearGradient id="pest-control-q" x1="100%" x2="0%" y1="50%" y2="50%">
      <stop offset="0%" stop-color="#F4DFC5"/>
      <stop offset="100%" stop-color="#E5BC93"/>
    </linearGradient>
    <linearGradient id="pest-control-r" x1="0%" x2="100%" y1="50%" y2="50%">
      <stop offset="0%" stop-color="#1460DB"/>
      <stop offset="100%" stop-color="#559FF0"/>
    </linearGradient>
    <linearGradient id="pest-control-s" x1="0%" x2="100%" y1="50%" y2="50%">
      <stop offset="0%" stop-color="#1460DB"/>
      <stop offset="100%" stop-color="#559FF0"/>
    </linearGradient>
    <linearGradient id="pest-control-t" x1="0%" x2="100%" y1="50%" y2="50%">
      <stop offset="0%" stop-color="#1460DB"/>
      <stop offset="100%" stop-color="#559FF0"/>
    </linearGradient>
  </defs>
  <g fill="none" fill-rule="evenodd" transform="translate(-42 -83)">
    <g transform="rotate(-180 314 273.5)">
      <g transform="translate(.67)">
        <mask id="pest-control-d" fill="#fff">
          <use xlink:href="#pest-control-a"/>
        </mask>
        <use fill="url(#pest-control-b)" xlink:href="#pest-control-a"/>
        <circle cx="542.83" cy="146.5" r="4.5" fill="url(#pest-control-c)" mask="url(#pest-control-d)"/>
      </g>
      <path stroke="url(#pest-control-e)" stroke-dasharray="8 5" stroke-width="2" d="M528.018395,370.099448 C479.020163,404.781836 435.556698,475.008859 354.686897,458.64329 C273.817096,442.277721 272.923848,413.482857 178.98336,374.209862 C85.0428708,334.936866 51.3151459,122.376384 219.310036,72.5207644 C313.593032,44.5405257 301.115639,144.565691 409.656091,118.86765 C593.597843,75.3175965 632.195606,296.359757 528.018395,370.099448 Z" opacity=".253" transform="rotate(180 342.905 264.305)"/>
    </g>
    <g stroke-width="2" transform="translate(120 83.878)">
      <circle cx="366" cy="122.122" r="14" stroke="url(#pest-control-f)"/>
      <circle cx="361" cy="340.122" r="6" stroke="url(#pest-control-c)"/>
      <circle cx="7.5" cy="266.622" r="7.5" stroke="url(#pest-control-f)"/>
      <circle cx="15.5" cy="356.622" r="10.5" stroke="url(#pest-control-c)"/>
      <circle cx="219.051" cy="6.173" r="6.051" stroke="url(#pest-control-c)"/>
    </g>
    <g transform="matrix(-1 0 0 1 465 104)">
      <g fill="#EEF5F7" transform="translate(19.04 43.045)">
        <polygon points="171.158 39.798 136.862 19.997 170.944 .32 205.241 20.121"/>
        <polygon points="239.536 39.798 205.24 19.997 239.322 .32 273.619 20.121"/>
        <polygon points="308.021 39.798 273.725 19.997 307.806 .32 342.103 20.121"/>
        <polygon points="171.158 79.363 136.862 59.563 170.944 39.886 205.241 59.686"/>
        <polygon points="239.536 79.363 205.24 59.563 239.322 39.886 273.619 59.686"/>
        <polygon points="308.021 79.363 273.725 59.563 307.806 39.886 342.103 59.686"/>
        <polygon points="102.674 118.929 68.378 99.129 102.46 79.452 136.756 99.252"/>
        <polygon points="171.158 118.929 136.862 99.129 170.944 79.452 205.241 99.252"/>
        <polygon points="239.536 118.929 205.24 99.129 239.322 79.452 273.619 99.252"/>
        <polygon points="308.021 118.929 273.725 99.129 307.806 79.452 342.103 99.252"/>
        <polygon points="34.296 158.495 0 138.694 34.082 119.017 68.378 138.818"/>
        <polygon points="102.674 158.495 68.378 138.694 102.46 119.017 136.756 138.818"/>
        <polygon points="171.158 158.495 136.862 138.694 170.944 119.017 205.241 138.818"/>
        <polygon points="239.536 158.495 205.24 138.694 239.322 119.017 273.619 138.818"/>
        <polygon points="308.021 158.495 273.725 138.694 307.806 119.017 342.103 138.818"/>
        <polygon points="34.296 198.061 0 178.26 34.082 158.583 68.378 178.384"/>
        <polygon points="102.674 198.061 68.378 178.26 102.46 158.583 136.756 178.384"/>
        <polygon points="171.158 198.061 136.862 178.26 170.944 158.583 205.241 178.384"/>
        <polygon points="239.536 198.061 205.24 178.26 239.322 158.583 273.619 178.384"/>
        <polygon points="34.296 237.627 0 217.826 34.082 198.149 68.378 217.95"/>
        <polygon points="102.674 237.627 68.378 217.826 102.46 198.149 136.756 217.95"/>
        <polygon points="171.158 237.627 136.862 217.826 170.944 198.149 205.241 217.95"/>
        <polygon points="34.296 277.192 0 257.392 34.082 237.715 68.378 257.515"/>
        <polygon points="102.674 277.192 68.378 257.392 102.46 237.715 136.756 257.515"/>
        <polygon points="171.158 277.192 136.862 257.392 170.944 237.715 205.241 257.515"/>
      </g>
      <g transform="translate(276.48 70.362)">
        <mask id="pest-control-i" fill="#fff">
          <use xlink:href="#pest-control-g"/>
        </mask>
        <path fill="url(#pest-control-h)" d="M37.8753036,16.2113418 C32.1975261,23.9751375 19.7964788,29.4244463 10.1743057,28.3830928 C0.552960393,27.3417392 -2.64477314,20.203749 3.03217653,12.4407811 C8.70829841,4.67781315 21.1110014,-0.771495639 30.7331744,0.269857917 C40.3545197,1.31121147 43.5522533,8.4492017 37.8753036,16.2113418" mask="url(#pest-control-i)"/>
      </g>
      <path fill="#EF6B59" d="M315.219542,72.9311714 C320.488394,70.6001288 328.388774,72.3003992 332.268603,75.1695021 C338.175677,79.5393792 331.244633,83.8678671 326.200938,85.4977758 C319.521541,87.6558114 304.376386,94.0694897 300.153027,95.9071724 C292.683923,99.1562286 288.370335,106.824829 288.370335,106.824829 C288.370335,106.824829 294.677229,100.448401 302.189378,97.179478 C305.129671,95.9005502 325.721651,88.9736451 332.891097,85.8545511 C336.848737,84.1327583 342.558798,78.1147612 335.805728,73.1199064 C331.332378,69.8112497 321.192839,67.3643172 313.499405,71.1911673 C311.006117,72.4311893 312.844627,73.9816306 315.219542,72.9311714"/>
      <path fill="#EA9F96" d="M315.774076,71.2436489 C321.042099,68.913434 329.334022,69.9556154 333.213023,72.825546 C339.120924,77.1945954 333.211367,81.9278701 328.322469,83.9766381 C321.566915,86.806835 305.426763,93.2031299 301.201748,95.0416404 C293.733472,98.2906966 288.37108,106.824332 288.37108,106.824332 C288.37108,106.824332 293.978496,98.9653414 301.490645,95.6964184 C304.430937,94.4174905 325.027056,87.7935548 332.196503,84.6744608 C336.154143,82.952668 342.498287,78.2748548 335.847034,72.3843366 C331.682448,68.6957266 321.746544,65.6767946 314.053938,69.5036448 C311.56065,70.7436667 313.39916,72.2949358 315.774076,71.2436489"/>
      <path fill="#EA9F96" d="M312.610861,81.6604956 C312.610861,81.6604956 316.986532,83.3102711 308.360185,86.0212671 C307.324625,86.3474143 306.149171,87.1412602 306.149171,87.1412602 L305.074706,88.38956 C305.074706,88.38956 304.929016,88.9946708 305.616905,88.6710069 C306.304794,88.347343 306.765043,87.8324607 306.765043,87.8324607 C306.765043,87.8324607 304.896732,89.3199904 305.10285,89.4350525 C305.308969,89.5501146 305.867724,89.7777555 306.395851,89.4723028 C306.924805,89.1668501 307.393332,88.5799505 307.393332,88.5799505 L306.13841,89.9731127 C306.13841,89.9731127 306.837888,90.5641512 307.714512,89.9333791 C308.591137,89.3009513 308.576236,88.6238232 309.172242,88.6917015 C309.767419,88.7587521 312.110051,87.4533351 312.110051,87.4533351 C312.110051,87.4533351 311.464378,87.9831175 311.175481,88.1147354 C310.885757,88.2463532 310.697022,89.1022829 311.376633,88.7587521 C312.054589,88.4160491 313.601719,87.7116041 313.695259,86.5700885 C313.788799,85.4294008 315.659593,83.8897206 315.599992,83.2804708 C315.542047,82.6703933 314.392254,81.2052138 314.392254,81.2052138 L312.610861,81.6604956 Z"/>
      <path fill="#EF6B59" d="M283.462149,88.7819301 C283.073091,88.543528 282.776743,87.9897398 281.742012,87.9367616 C281.274314,87.9135836 280.932438,88.0402347 280.698175,88.1867527 C280.68162,88.1751637 277.593154,88.5054499 276.894503,88.7248129 C276.19668,88.9450037 275.527002,89.0683437 276.265387,89.3762797 C277.002943,89.6842158 279.19409,89.2132061 279.19409,89.2132061 C279.19409,89.2132061 277.03026,90.2760821 276.486405,90.5144841 C275.94255,90.753714 274.983148,91.0666167 275.290256,91.4358089 C275.597364,91.8058288 277.195817,91.1104894 277.276112,91.0748946 C277.357235,91.0401276 279.559143,90.4962729 279.559143,90.4962729 C279.559143,90.4962729 279.138628,91.1452563 278.578218,91.5152762 C278.017807,91.8852961 277.253762,92.1758487 277.248795,92.5756688 C277.243828,92.9763168 277.919301,92.9763168 278.36051,92.6377527 C278.80172,92.2983609 280.922505,90.9432768 280.922505,90.9432768 C280.922505,90.9432768 279.439114,92.6501695 280.3265,92.6418916 C281.078129,92.6344416 283.059846,90.7164637 283.650884,90.1279085 C283.711313,90.0774137 283.76843,90.0227798 283.818925,89.9582126 C283.852036,89.9168234 283.881836,89.872123 283.908326,89.8249392 C284.337118,89.0724826 283.79078,88.9839096 283.462149,88.7819301"/>
      <path fill="#EA9F96" d="M284.331158 85.8693685C284.331158 85.8693685 284.949514 87.8701249 284.918886 88.5944368 284.888258 89.3179209 284.773195 89.7177411 283.819587 89.9577987 282.865979 90.1978564 281.907404 91.2988104 281.416527 91.6531024 280.923995 92.0082222 280.04406 92.4130091 280.04406 92.4130091 280.04406 92.4130091 279.582983 91.5322458 280.440569 90.8476676 281.298154 90.1630894 281.678107 89.7136021 281.678107 89.7136021 281.678107 89.7136021 279.63265 91.4511229 279.000223 91.7888592 278.366139 92.1274233 277.24863 92.5760827 277.24863 92.5760827 277.24863 92.5760827 276.80742 91.9916665 277.407564 91.6489635 278.007708 91.3070883 278.573913 90.7897227 279.558978 90.4966868 280.545697 90.2028231 280.75016 89.5662564 280.75016 89.5662564 280.75016 89.5662564 277.621961 90.7292944 276.828943 90.8443565 276.035925 90.9594186 275.29009 91.4362228 275.29009 91.4362228 275.29009 91.4362228 274.856331 90.8716734 275.901823 90.3319575 276.948971 89.7905861 279.358654 89.3700714 279.773374 89.2310035 280.188922 89.0927634 280.663243 88.8022108 280.663243 88.8022108 280.663243 88.8022108 277.900924 89.078691 277.336375 89.1374638 276.77017 89.1962365 275.95149 89.1026968 275.95149 89.1026968 275.95149 89.1026968 275.932451 88.2211057 276.947316 88.1598497 277.961352 88.0994213 281.140047 87.9487645 281.456261 87.6871844 281.773302 87.4256043 282.537348 85.6649056 282.537348 85.6649056L284.331158 85.8693685zM280.369296 73.0645276C280.369296 73.0645276 277.787435 68.3387029 277.713762 68.9868586 277.640089 69.6350142 276.900049 70.3717429 277.382648 71.903973 277.865247 73.4362031 279.536545 74.6116578 279.536545 74.6116578L280.369296 73.0645276z"/>
      <path fill="#593748" d="M315.273679,82.4927506 C313.405369,83.9190242 310.494877,81.0888272 307.148969,83.0051496 C303.802235,84.9198163 301.473675,87.7682246 299.622748,87.808786 C297.769337,87.8510031 291.142918,93.8267831 285.214322,89.1762869 C283.946155,88.1821171 283.624975,88.983413 282.053839,89.0537747 C280.481047,89.1266198 277.501021,88.2988348 277.501021,88.2988348 C277.501021,88.2988348 276.184843,89.4718061 275.216335,89.7449752 C272.23962,90.5826936 270.791824,89.2251262 270.386209,88.8915288 C269.863877,88.5256479 269.964039,88.0529826 269.964039,88.0529826 C269.964039,88.0529826 269.803448,88.2309564 269.355617,87.8865978 C268.316746,87.0886131 268.532798,84.8188265 270.09069,83.6889 C270.565838,83.3445414 274.987038,79.0177091 276.611152,77.2404547 C278.235267,75.4615447 280.040666,75.9540768 280.040666,75.9540768 C280.040666,75.9540768 283.086087,71.6653226 286.892242,71.2398411 C291.486449,70.7266143 293.028613,67.4717636 296.272702,63.4901177 C297.732087,61.6996187 305.34357,56.5317568 312.990648,62.522437 C319.721368,67.793772 317.141162,81.0681326 315.273679,82.4927506"/>
      <path fill="#5E3C4C" d="M284.240599,73.6692245 C284.240599,73.6692245 283.8325,71.488011 286.319167,71.2785814 C288.805833,71.068324 289.086452,70.2355723 290.530937,69.0857789 C291.974594,67.9368133 294.571356,62.2250966 299.279797,59.805481 C303.98741,57.3858654 309.463208,61.2988052 311.238807,62.9634809 C313.015234,64.6281565 313.474654,67.799401 311.610482,71.1999418 C309.746311,74.5996549 297.878357,73.5781682 296.072958,75.0143752 C294.267558,76.4505822 291.092175,78.3884269 289.471372,78.2046587 C287.850569,78.0200626 284.240599,73.6692245 284.240599,73.6692245"/>
      <path fill="#6C4E5D" d="M281.054785,72.8143709 C281.054785,72.8143709 277.521799,73.5618608 275.767722,75.9889265 C274.277709,78.0525946 273.98964,79.175071 274.060829,79.2338438 C272.258741,80.7164067 271.76207,82.7477912 270.0171,84.693086 C269.086669,85.7311284 268.977402,86.845327 269.707508,87.0588956 C271.653631,87.6292395 272.416848,86.3892175 273.723921,85.6889114 C275.998674,84.4704118 277.981219,83.9571851 278.522591,83.5259091 C279.06479,83.0954609 279.646723,80.8629247 281.772475,80.9407365 C282.341163,80.9614311 283.579529,80.6551507 284.793062,80.0922568 C286.448632,79.3257279 288.058674,78.081567 287.854211,76.5427147 C287.500747,73.8755913 283.651547,71.6322939 281.054785,72.8143709"/>
      <path fill="#EA9F96" d="M286.49118,81.3129086 C286.49118,81.3129086 286.855406,79.548071 287.559851,79.135834 C288.263468,78.7235971 291.261705,75.4521907 289.209626,74.7262232 C287.158375,74.0010836 286.96219,74.3148141 285.659256,75.6367868 C284.355495,76.9571039 283.798396,77.5589036 283.798396,77.5589036 C283.798396,77.5589036 285.376982,78.231065 285.971331,79.447909 C286.564853,80.664753 286.49118,81.3129086 286.49118,81.3129086"/>
      <path fill="#EF6B59" d="M281.054785 72.8143709C281.054785 72.8143709 279.113629 71.1157561 278.899233 70.1066861 278.686492 69.0967884 277.60706 68.4817442 277.713845 68.986693 277.820629 69.4908141 279.006017 70.6108072 279.164952 72.1066148 279.323059 73.6024223 279.049062 73.772946 279.049062 73.772946 279.049062 73.772946 281.356099 74.4898078 281.054785 72.8143709M283.669924 78.6937141C283.669924 78.6937141 285.183942 78.3733613 285.600318 77.5993823 286.016694 76.826231 287.10937 74.4306212 287.10937 74.4306212L283.79823 77.5588208 283.669924 78.6937141z"/>
      <path fill="#1A1A1A" d="M279.099309 82.7029252C279.099309 82.7029252 279.926266 80.8155754 280.91133 81.0490108 281.897222 81.2832739 281.848383 81.7153777 281.787126 82.2550935 281.676203 83.2277409 280.533032 84.440446 279.099309 82.7029252M274.084918 79.2454328C274.084918 79.2454328 274.944159 78.1602066 275.064188 77.3696719 275.183389 76.5791372 273.935917 77.0667026 273.746354 77.8936598 273.563413 78.6833667 274.084918 79.2454328 274.084918 79.2454328"/>
      <path fill="#EA9F96" d="M269.77787,86.8002128 C269.77787,86.8002128 269.560162,87.2679113 269.865615,87.4665797 C270.171895,87.6660759 270.657805,87.7215375 271.180965,87.4525074 C271.603964,87.2347999 272.084079,86.73399 272.084079,86.73399 C272.084079,86.73399 271.036931,87.2720502 270.57006,87.0543428 C270.102361,86.8366353 269.77787,86.8002128 269.77787,86.8002128"/>
      <path fill="#EA9F96" d="M269.720421,85.3548173 C269.720421,85.3548173 269.482019,86.0965127 269.54162,86.3489871 C269.60122,86.6022894 269.741116,86.7620519 269.741116,86.7620519 C269.741116,86.7620519 269.676549,87.3266012 269.476225,87.1337273 C269.275901,86.9416812 269.159183,86.4607381 269.370268,86.1105851 C269.581354,85.7612598 269.720421,85.3548173 269.720421,85.3548173"/>
      <path fill="#333" d="M272.325047 87.0487966C272.317597 87.1100527 272.262963 87.1547531 272.200879 87.1481308 272.138795 87.1406807 272.095751 87.0852191 272.101545 87.0231353 272.108995 86.9618792 272.165285 86.9180066 272.226541 86.9246288 272.287797 86.9312511 272.332497 86.9875405 272.325047 87.0487966M273.067156 86.92794C273.061362 86.9784349 273.015834 87.0140296 272.965339 87.0090629 272.914844 87.0032684 272.879249 86.9577402 272.885044 86.9072454 272.890838 86.8567505 272.936366 86.8211557 272.986033 86.8261224 273.036528 86.8319169 273.072951 86.8774451 273.067156 86.92794M273.755046 86.8111395C273.750079 86.8550121 273.711173 86.886468 273.668128 86.8806735 273.624256 86.8765345 273.5928 86.8368009 273.598594 86.793756 273.602733 86.7498834 273.641639 86.7184276 273.685512 86.7233943 273.729384 86.728361 273.76084 86.7680947 273.755046 86.8111395M272.027541 87.5855324C272.008502 87.6443051 271.944763 87.6774165 271.886818 87.6583775 271.827217 87.6393384 271.794934 87.5764268 271.813145 87.5168262 271.833012 87.4588813 271.895923 87.4257699 271.954696 87.444809 272.013469 87.463848 272.045752 87.5267597 272.027541 87.5855324M272.779335 87.611856C272.76278 87.6598675 272.712285 87.6863566 272.663446 87.6714565 272.615434 87.6557286 272.588945 87.6044059 272.603845 87.5563944 272.619573 87.5075551 272.670896 87.4810659 272.719735 87.4967938 272.767746 87.511694 272.795063 87.5630167 272.779335 87.611856M273.476993 87.6312261C273.46292 87.6726154 273.419048 87.6966212 273.376831 87.6825488 273.335441 87.6693042 273.312263 87.6246039 273.325508 87.5832146 273.338753 87.5418254 273.384281 87.5186474 273.42567 87.5318919 273.467059 87.5451365 273.490237 87.5898369 273.476993 87.6312261M271.276575 87.8838661C271.240152 87.934361 271.170618 87.9451222 271.120123 87.9095275 271.069628 87.8731049 271.058039 87.8027432 271.094462 87.7522483 271.130884 87.7025812 271.201246 87.6909922 271.251741 87.7274148 271.301408 87.7638373 271.312997 87.8333712 271.276575 87.8838661M271.982261 88.1429628C271.953289 88.1843521 271.896172 88.1934577 271.854782 88.1636575 271.813393 88.1338572 271.804287 88.07674 271.834088 88.0353508 271.86306 87.9947893 271.921005 87.9856837 271.962394 88.0146562 272.002956 88.0444564 272.012062 88.1024014 271.982261 88.1429628M272.639523 88.3793782C272.613861 88.4141452 272.564194 88.4224231 272.528599 88.3967617 272.493005 88.3711004 272.484727 88.3214333 272.511216 88.2858385 272.536877 88.2510716 272.586544 88.2427937 272.622139 88.268455 272.656906 88.2941164 272.665184 88.3437835 272.639523 88.3793782"/>
      <path fill="#FFF" d="M280.416149 81.9766267C280.407043 82.0585774 280.332543 82.1173501 280.250592 82.1082445 280.168641 82.0991388 280.109868 82.0246382 280.119802 81.9426875 280.12808 81.8607368 280.20258 81.801964 280.284531 81.8110697 280.366482 81.8201753 280.426082 81.8946759 280.416149 81.9766267M274.417936 77.6962331C274.40883 77.7781838 274.33433 77.8369566 274.253207 77.8278509 274.170428 77.8187453 274.111655 77.7442446 274.121589 77.6622939 274.129867 77.5803432 274.204367 77.5215705 274.286318 77.5306761 274.368269 77.5406095 274.427869 77.6142824 274.417936 77.6962331"/>
      <path fill="#EF6B59" d="M283.828362 77.2956679C283.828362 77.2956679 283.368113 77.7360496 283.396258 78.2111982 283.424402 78.6863468 283.635488 78.9975939 283.635488 78.9975939 283.635488 78.9975939 283.760483 78.6358519 284.370561 78.6772411 284.980638 78.7194582 286.194171 77.7517775 286.382078 76.6748292 286.570813 75.5978809 287.088179 74.4720932 287.919275 74.5217603 288.751199 74.5722552 289.209792 74.7262232 289.209792 74.7262232 289.209792 74.7262232 288.072415 73.9067161 287.126257 74.2775637 286.181754 74.6492392 283.828362 77.2956679 283.828362 77.2956679M291.292996 97.2509986C291.034727 97.018391 291.024793 96.6963827 289.632459 96.7352886 289.545542 96.7377719 289.461935 96.7427386 289.383296 96.7501887 289.259956 96.7609499 289.151516 96.7783334 289.050526 96.7982002 287.895766 96.9695517 284.1161 97.5581069 283.908326 97.9678605 283.663301 98.4521147 286.953747 98.0820948 286.953747 98.0820948 286.953747 98.0820948 284.097888 98.8916685 283.406688 99.0456366 282.71466 99.1996046 282.539997 99.5696245 283.22292 99.6706142 283.905842 99.7724318 284.598698 99.428901 285.373505 99.2178158 286.147484 99.0067307 287.362672 98.943819 287.362672 98.943819 287.362672 98.943819 285.866037 100.010006 285.784914 100.044773 285.703791 100.080368 284.105338 100.775707 284.654988 101.039771 285.205465 101.303834 285.986066 100.859314 286.53406 100.623395 287.082053 100.386648 289.451174 99.4769126 289.451174 99.4769126 289.451174 99.4769126 288.08119 100.555516 288.414787 101.039771 288.748385 101.524025 289.131649 101.188772 289.687093 100.863452 290.242537 100.538133 291.605899 98.9314022 291.605899 98.9314022 291.899762 98.8287569 292.204387 98.6747889 292.284682 98.412381 292.463484 97.8312759 291.598448 97.5249955 291.292996 97.2509986"/>
      <path fill="#EA9F96" d="M291.305081,94.1189085 C291.305081,94.1189085 290.613053,95.8738127 289.954964,96.1271149 C289.296875,96.3804171 288.215788,97.074101 287.098278,97.1130069 C285.97994,97.1527406 285.085933,96.83156 284.638101,97.1643295 C284.189441,97.4962713 283.907994,97.9681088 283.907994,97.9681088 L287.404558,97.8199353 C287.404558,97.8199353 285.570187,98.4531908 284.531317,98.3008784 C283.492446,98.1485659 283.211827,98.6435814 283.114149,98.7694047 C283.018126,98.895228 282.794624,99.4539829 282.794624,99.4539829 C282.794624,99.4539829 284.056168,99.1501858 284.75068,99.0649239 C285.444363,98.9796621 288.45419,98.5003746 288.45419,98.5003746 C288.45419,98.5003746 285.312746,99.8951923 284.901337,99.9026424 C284.490755,99.9109202 284.577673,100.794995 284.577673,100.794995 C284.577673,100.794995 287.051922,100.261073 288.060992,99.5508338 C289.070062,98.8405942 290.46488,98.6195756 290.46488,98.6195756 C290.46488,98.6195756 289.318397,99.2056474 288.882982,99.5342781 C288.449223,99.8637365 288.363133,100.854595 288.363133,100.854595 C288.363133,100.854595 288.951689,100.856251 289.767885,100.182434 C290.583253,99.5094445 291.012046,98.860461 292.285179,98.4126294 C293.643574,97.9333418 292.450736,96.0824145 292.619604,95.5542877 C292.7893,95.0261608 292.651888,93.5328367 291.305081,94.1189085"/>
      <path fill="#5E3C4C" d="M289.343148 90.8987419C289.343148 90.8987419 290.868756 91.0344987 291.226359 92.2919041 291.58479 93.5484818 290.595587 95.4954322 290.595587 95.4954322 290.595587 95.4954322 291.102191 96.4672518 291.878654 96.7429042 292.654288 97.0177288 292.868685 96.8546552 292.868685 96.8546552 292.868685 96.8546552 298.528251 92.0419131 298.887509 91.4045186 299.247596 90.7671241 299.681355 88.3946923 298.687185 86.3111574 297.693016 84.2284503 297.19055 81.8725741 297.19055 81.8725741 297.19055 81.8725741 297.716194 85.4626777 296.241909 87.9625885 294.767623 90.463327 289.343148 90.8987419 289.343148 90.8987419M307.916575 68.3165183C307.916575 68.3165183 303.018571 71.6806366 306.919921 76.3592775 310.820444 81.0379185 306.243621 83.5593516 313.73342 84.7761956 315.44859 85.0551592 318.164553 82.5204814 318.660396 78.0181587 318.98406 75.0894553 317.400508 66.3455621 313.319527 65.8472355 309.239375 65.3480812 307.916575 68.3165183 307.916575 68.3165183"/>
      <path fill="#D8E7F0" d="M117.648971,312.931742 C94.2932014,326.415788 56.3070831,326.346933 32.8034035,312.778732 C9.30099894,299.20798 9.18241585,277.277758 32.5381854,263.792437 C55.8939549,250.308392 93.8813483,250.375971 117.383753,263.946723 C140.886157,277.516199 141.00474,299.447696 117.648971,312.931742"/>
      <polygon fill="#5B7D87" points="35.267 218.83 15.198 207.045 15.198 191.386 35.267 203.171"/>
      <path fill="#7295A1" d="M83.6183727,190.443119 L35.2368216,218.829523 L35.2368216,203.171141 L97.2064638,167.001903 C97.2064638,176.686988 92.0220462,185.630377 83.6183727,190.443119"/>
      <polygon fill="#A2B9C4" points="35.322 203.122 15.253 191.337 77.052 155.266 97.121 167.051"/>
      <path fill="#7597A3" d="M139.748074,124.672619 C139.748074,125.012011 139.607351,125.218957 139.392127,125.276902 L114.293685,140.044587 L113.962571,139.837641 L113.623179,139.614139 L112.944395,138.016514 L138.175283,123.16605 C138.357396,123.017049 138.597453,123.008771 138.8789,123.174328 C139.243125,123.381274 139.557684,123.828278 139.690129,124.275282 C139.723241,124.407728 139.748074,124.548451 139.748074,124.672619"/>
      <path fill="#5B7F89" d="M139.748074,124.672619 C139.748074,125.012011 139.607351,125.218957 139.392127,125.276902 L114.293685,140.044587 L113.962571,139.837641 L113.623179,139.026411 L138.862344,124.175948 C139.036179,124.026947 139.276237,124.018669 139.557684,124.184226 C139.607351,124.209059 139.64874,124.242171 139.690129,124.275282 C139.723241,124.407728 139.748074,124.548451 139.748074,124.672619"/>
      <path fill="#75939C" d="M114.498231,139.532685 C114.498231,140.084817 114.107516,140.308319 113.625745,140.030183 C113.143974,139.752048 112.754088,139.078231 112.754088,138.52527 C112.754088,137.97231 113.143974,137.749636 113.625745,138.028599 C114.107516,138.306735 114.498231,138.979724 114.498231,139.532685"/>
      <path fill="#A2B9C4" d="M116.760484,141.07104 C116.760484,142.345829 116.23898,143.148781 115.411195,143.372283 L94.1619533,155.168219 L93.4003911,155.59039 L92.299437,156.202951 L89.7250256,154.555658 L87.1257806,148.438327 L110.767321,135.301379 C111.437827,134.730207 112.364946,134.705374 113.441066,135.326212 C114.252296,135.79805 114.997302,136.56789 115.576752,137.470176 C115.998922,138.115848 116.338314,138.844299 116.536982,139.564472 C116.685984,140.077698 116.760484,140.582647 116.760484,141.07104"/>
      <path fill="#79A0AF" d="M116.760484,141.07104 C116.760484,142.345829 116.23898,143.148781 115.411195,143.372283 L94.1619533,155.168219 L95.3125745,157.875076 L94.012952,157.047291 L93.4003911,155.59039 L91.413707,150.921682 L115.055247,137.784734 C115.212526,137.652288 115.386361,137.544676 115.576752,137.470176 C115.998922,138.115848 116.338314,138.844299 116.536982,139.564472 C116.685984,140.077698 116.760484,140.582647 116.760484,141.07104"/>
      <path fill="#7295A1" d="M116.760484,141.07104 C116.760484,142.345829 116.23898,143.148781 115.411195,143.372283 L94.1619533,155.168219 L93.069277,152.602086 L116.536982,139.564472 C116.685984,140.077698 116.760484,140.582647 116.760484,141.07104"/>
      <path fill="#75939C" d="M93.0715948,154.234395 C93.0715948,156.348558 91.5782707,157.200349 89.7356212,156.136645 C87.8937995,155.072941 86.3996476,152.496874 86.3996476,150.382711 C86.3996476,148.268548 87.8937995,147.417585 89.7356212,148.481289 C91.5782707,149.544165 93.0715948,152.120232 93.0715948,154.234395"/>
      <path fill="#A0ADB3" d="M99.1207167,156.666427 C99.1207167,159.903067 97.7879828,161.93114 95.6936867,162.502312 L29.3384395,201.913157 L26.3998026,200.034912 L25.497517,199.454635 L22.7989378,197.725392 L16.2014912,182.178762 L83.8894723,142.006355 C85.6029873,140.549453 87.9538967,140.48323 90.6855873,142.072577 C94.3195635,144.166874 97.4568688,148.653468 98.6240456,153.098674 C98.880659,154.067182 99.046216,155.035691 99.104161,155.971088 C99.1124388,156.211146 99.1207167,156.434648 99.1207167,156.666427"/>
      <path fill="#85989E" d="M99.1207167,156.666427 C99.1207167,159.903067 97.7879828,161.93114 95.6936867,162.502312 L29.3384395,201.913157 L26.3998026,200.034912 L25.497517,199.454635 L22.2857111,191.897786 L89.9736922,151.724551 C91.6872072,150.267649 94.0381166,150.201426 96.7698072,151.790774 C97.4072017,152.154999 98.0280404,152.593725 98.6240456,153.098674 C98.880659,154.067182 99.046216,155.035691 99.104161,155.971088 C99.1124388,156.211146 99.1207167,156.434648 99.1207167,156.666427"/>
      <path fill="#707F84" d="M99.1207167,156.666427 C99.1207167,159.903067 97.7879828,161.93114 95.6936867,162.502312 L29.3384395,201.913157 L26.3998026,200.034912 L24.7607883,196.160051 L92.4487694,155.987644 C94.129173,154.555576 96.4304153,154.464519 99.104161,155.971088 C99.1124388,156.211146 99.1207167,156.434648 99.1207167,156.666427"/>
      <path fill="#A2B9C4" d="M31.2957371,196.906961 C31.2957371,202.276803 27.5019984,204.440633 22.8225297,201.737914 C18.1422332,199.036024 14.3484944,192.492384 14.3484944,187.122542 C14.3484944,181.751873 18.1422332,179.588871 22.8225297,182.290761 C27.5019984,184.992651 31.2957371,191.53712 31.2957371,196.906961"/>
      <path fill="#698994" d="M29.9259185,192.013013 L29.1395227,208.419712 C29.1395227,208.419712 26.1015517,212.914585 22.823523,213.171198 C21.6811797,213.253977 20.4146686,213.287088 19.0405455,213.080142 C17.6664223,212.881474 16.1846872,212.459303 14.6036178,211.639796 C13.2046611,210.911345 11.7312037,209.876614 10.1915236,208.419712 C5.18342424,203.676504 8.85051188,191.383897 8.85051188,191.383897 C8.62700992,192.791131 8.94156823,194.173532 10.1915236,195.357265 C11.7312037,196.814166 13.2046611,197.848898 14.6036178,198.577348 C16.1846872,199.388578 17.6664223,199.819026 19.0405455,200.017694 C20.4146686,200.216363 21.6811797,200.191529 22.823523,200.101301 C26.1015517,199.84386 29.9259185,192.013013 29.9259185,192.013013"/>
      <path fill="#7295A1" d="M29.9259185,192.013013 C29.9259185,192.013013 26.1015517,199.84386 22.823523,200.101301 C21.6811797,200.191529 20.4146686,200.216363 19.0405455,200.017694 C17.6664223,199.819026 16.1846872,199.388578 14.6036178,198.577348 C13.2046611,197.848898 11.7312037,196.814166 10.1915236,195.357265 C8.94156823,194.173532 8.62700992,192.791131 8.86706758,191.383897 L29.9259185,192.013013 Z"/>
      <path fill="#7295A1" d="M29.9259185,192.013013 L8.86706758,191.383897 C9.55412915,187.145637 15.199623,182.66732 15.199623,182.66732 L29.9259185,192.013013 Z"/>
      <path fill="#7597A3" d="M17.4387815,234.516215 C12.8346412,234.516215 9.16589797,233.063452 6.50208578,230.185243 C-0.186417187,222.94378 2.24478742,209.604024 2.54361781,208.109872 C3.27869091,204.437818 4.55596319,202.120848 6.34315105,201.222701 C7.86130878,200.452033 9.1369255,201.015755 9.2801323,201.081978 L8.17669487,203.560366 C8.12868334,203.539671 7.86461992,203.467654 7.50370565,203.680395 C7.06084066,203.932041 5.95078095,204.9229 5.20577443,208.639655 C4.21905469,213.569942 3.80598997,223.264133 8.49787546,228.342594 C11.0772536,231.133885 14.968671,232.236495 20.0496154,231.639662 C36.9538133,229.625661 37.147515,211.12301 37.147515,210.335786 L39.8609943,210.335786 C39.8609943,210.553494 39.6391479,232.041137 20.370796,234.333274 C19.3551038,234.455786 18.3774897,234.516215 17.4387815,234.516215"/>
      <path fill="#8AB2BC" d="M21.8154464,235.677845 C17.2113061,235.677845 13.5417351,234.224255 10.8787507,231.346046 C4.19024777,224.104583 6.62145238,210.765655 6.92028277,209.270675 C7.65535587,205.599449 8.93262815,203.282479 10.7189882,202.383504 C12.2379737,201.612836 13.5127627,202.176558 13.6567973,202.242781 L12.5541876,204.721997 C12.5028649,204.702958 12.2412849,204.631768 11.8803706,204.841198 C11.4375056,205.092844 10.3274459,206.084531 9.58243939,209.800458 C8.59571965,214.730745 8.18265492,224.424936 12.8745404,229.504225 C15.4530908,232.294688 19.3494748,233.398125 24.4262804,232.801292 C41.3279949,230.787291 41.5233522,208.382462 41.5233522,208.157305 L44.2376593,208.157305 C44.2376593,208.406468 44.0149851,233.20194 24.747461,235.494077 C23.7317687,235.616589 22.7533268,235.677845 21.8154464,235.677845"/>
      <polygon fill="#A2B9C4" points="25.385 183.294 43.503 172.833 39.369 170.447 21.251 180.907"/>
      <path fill="#A0ADB3" d="M18.6097662,192.996008 C16.9086679,194.851074 14.5668641,195.472741 13.3789926,194.383376 C12.1911211,193.294011 12.607497,190.908334 14.3077674,189.051612 C16.0096934,187.196546 18.3514972,186.575707 19.5393687,187.665072 C20.7272402,188.754438 20.3108644,191.14177 18.6097662,192.996008"/>
      <path fill="#A6BEC9" d="M17.6870342,192.158455 C16.5107517,193.445661 14.8907764,193.876937 14.0671303,193.118686 L13.8585285,192.8778 C13.8452839,192.857933 11.4670575,190.041809 11.4670575,190.041809 L15.7334615,185.389657 L18.1969498,188.355611 C18.2424779,188.388722 18.2880061,188.427628 18.3335343,188.467362 C19.1571804,189.218163 18.869939,190.871249 17.6870342,192.158455"/>
      <path fill="#A0ADB3" d="M15.0872098,189.082572 C13.9084439,190.368122 12.2859853,190.797742 11.4639947,190.04363 C10.6403486,189.28869 10.9292456,187.635603 12.1071837,186.350053 C13.2859496,185.064503 14.9084082,184.634883 15.7312265,185.388995 C16.5540448,186.143107 16.2659756,187.797021 15.0872098,189.082572"/>
      <polygon fill="#A9C0CB" points="36.031 163.287 39.698 165.405 41.795 173.776 37.662 171.389"/>
      <polygon fill="#A0ADB3" points="22.935 174.718 41.052 164.259 36.919 161.871 18.801 172.331"/>
      <polygon fill="#A2B9C4" points="26.475 182.665 25.6 174.718 39.974 166.478 41.422 174.035 43.502 172.833 41.052 164.258 22.935 174.718 25.385 183.294"/>
      <polygon fill="#A9C0CB" points="18.801 172.331 22.935 174.719 25.385 183.294 21.251 180.907"/>
      <path fill="#A9C0CB" d="M85.1155047,132.63558 C85.1155047,132.63558 82.9922361,142.056601 84.4623823,142.465527 C85.5848588,142.776774 86.9523596,142.21388 87.5351203,141.931606 C87.7114385,141.845516 87.8198783,141.666714 87.8198783,141.469702 L87.8198783,135.728185 C87.8198783,135.321742 88.2701934,135.074235 88.6128964,135.293598 L93.0829355,138.145317 C94.8494287,139.27276 95.7012195,141.409273 95.1697815,143.436519 C94.4909978,146.025003 93.8080752,149.341109 94.4264306,150.38743 C95.2426266,151.769003 96.9222024,151.504939 97.6539644,151.309582 C97.8650496,151.253293 98.0190176,151.073663 98.0380566,150.855956 L98.8708084,141.597181 C99.0272597,139.849726 98.2764587,138.144489 96.881641,137.080785 L89.1691679,131.198545 C87.7130941,130.087658 85.5260861,130.797069 85.1262659,132.584257 L85.1155047,132.63558 Z"/>
      <path fill="url(#pest-control-j)" d="M85.1543278,138.779318 L86.0193631,133.240608 C86.0193631,133.240608 90.0001813,131.54696 90.5192025,130.056947 C91.0390515,128.567762 94.5008485,129.432797 95.1928767,128.567762 C95.884905,127.701898 96.404754,129.824339 95.1928767,130.667024 C93.9818273,131.509709 93.1921203,132.635497 93.1921203,132.635497 C93.1921203,132.635497 96.3443257,131.657883 97.1207881,131.616494 C97.8972504,131.575104 98.4162716,132.842443 97.9626454,133.571722 L97.5073637,134.301001 C97.5073637,134.301001 98.4659387,134.171038 99.1223722,134.625492 C99.7796335,135.079946 98.8905924,136.831539 98.8905924,136.831539 C98.8905924,136.831539 100.113231,136.201595 100.368189,137.684986 C100.623146,139.169204 99.4551418,139.81736 99.4551418,139.81736 C99.4551418,139.81736 100.104125,140.045829 100.104125,141.067315 C100.104125,142.08963 98.7564913,142.867748 98.7564913,142.867748 C98.7564913,142.867748 96.9883424,143.452164 94.1324841,143.906618 C91.2766258,144.361072 84.433327,143.39008 85.1543278,138.779318"/>
      <path fill="url(#pest-control-k)" d="M42.2542036,275.988658 C42.2542036,275.988658 45.8169903,271.127904 48.1298216,270.340681 C50.4434808,269.554285 54.6693233,267.518762 58.1327758,268.810934 C61.5962284,270.103934 58.3720057,275.074783 57.5690542,276.578869 C56.765275,278.082126 51.9036936,280.679716 50.3739468,281.956988 C48.8433723,283.23426 44.1961872,292.267878 41.0580542,292.473997 C37.9199212,292.680115 35.102141,292.041893 34.9390674,289.513837 C34.7751659,286.985782 36.2271008,282.761595 36.2271008,282.761595 L42.2542036,275.988658 Z"/>
      <path fill="url(#pest-control-l)" d="M42.366534,274.434988 C42.366534,274.434988 45.9293207,269.574235 48.2429799,268.787839 C50.5558112,268.000615 54.7816537,265.965092 58.2451063,267.257264 C61.7085588,268.550265 58.4851639,273.521114 57.6813847,275.025199 C56.8784332,276.528457 52.016024,279.126046 50.4862773,280.403318 C48.9557028,281.680591 44.3093454,290.714208 41.1703846,290.920327 C38.0322516,291.126445 35.2152992,290.489051 35.0513978,287.960168 C34.8874963,285.432112 36.7607738,280.18975 36.7607738,280.18975 L42.366534,274.434988 Z"/>
      <path fill="url(#pest-control-m)" d="M93.4046955,292.514475 C93.4046955,292.514475 100.113893,294.794195 101.930881,294.707278 C103.748697,294.621188 112.316272,292.89029 115.25822,296.871108 C118.200996,300.851926 110.858543,306.634004 108.595378,307.169581 C106.331386,307.705158 94.8351081,306.563643 92.2391742,307.169581 C89.6432404,307.77552 82.8057361,308.070211 82.2867149,307.316927 C81.7676937,306.563643 79.6907811,305.5256 80.988748,301.977714 C82.2867149,298.428999 82.2867149,294.01525 82.2867149,294.01525 L93.4046955,292.514475 Z"/>
      <path fill="url(#pest-control-n)" d="M93.4046955,290.956749 C93.4046955,290.956749 100.113893,293.236469 101.930881,293.149552 C103.748697,293.063462 112.316272,291.332564 115.25822,295.313382 C118.200996,299.2942 110.858543,305.076279 108.595378,305.611855 C106.331386,306.147432 94.8351081,305.005917 92.2391742,305.611855 C89.6432404,306.217794 82.8057361,306.512486 82.2867149,305.759201 C81.7676937,305.005917 79.6907811,303.967874 80.988748,300.419988 C82.2867149,296.871273 82.2867149,292.457524 82.2867149,292.457524 L93.4046955,290.956749 Z"/>
      <path fill="#A8B7CF" d="M51.2167975,248.617201 C50.0910099,251.084001 49.2880584,252.789238 49.2880584,252.789238 C49.2880584,252.789238 49.2880584,256.44722 49.8012852,259.75836 C50.3145119,263.028938 48.0712145,272.564194 48.0712145,272.564194 C48.0712145,272.564194 51.1836861,276.19072 44.6027952,281.909887 C42.2767193,283.922232 40.6045936,284.435459 39.4125832,284.252519 C37.2189529,283.904849 36.6395033,281.231931 36.6395033,281.231931 C36.6395033,281.231931 32.7571916,259.014181 32.7571916,253.302464 C32.7571916,247.58992 38.9159121,241.167136 38.5020196,237.698717 C38.1460721,234.743524 39.6609187,212.334556 40.1079226,205.720554 C39.917532,203.030252 39.4043053,198.080926 38.2454063,192.013262 C37.0616737,185.89593 39.1311363,180.73883 40.6873721,177.932638 C41.4903236,176.466631 42.1608294,175.638846 42.1608294,175.638846 C42.1608294,175.638846 55.7447816,176.38468 61.2329963,182.194903 C63.6749621,184.761865 64.5358585,187.973671 64.7593605,190.730195 C65.0159738,194.230898 64.2461338,197.053645 64.2461338,197.053645 C64.2461338,197.053645 65.9513709,195.29129 65.5292005,197.475815 C70.5704113,205.944883 60.3307106,229.25531 57.6652429,234.942193 C55.9351722,238.634114 53.1372588,244.602444 51.2167975,248.617201 Z"/>
      <path fill="#A8B7CF" d="M57.6676434,234.938964 C55.9342616,238.630886 53.1413149,244.602527 51.2150592,248.614801 C51.3433659,241.87332 52.4989538,224.762175 52.8838738,219.111715 C52.6595441,216.414791 52.1777732,211.470431 50.9899017,205.402767 C49.1919526,196.092669 54.9069804,189.029179 54.9069804,189.029179 C54.9069804,189.029179 59.7222058,189.286621 64.7625888,190.731105 C65.0192022,194.230153 64.2493621,197.055383 64.2493621,197.055383 C64.2493621,197.055383 65.9504603,195.289717 65.5332567,197.472587 C70.5736397,205.949105 60.3322834,229.25622 57.6676434,234.938964"/>
      <path fill="#B5C6E0" d="M94.5097058 291.786107C94.5097058 291.786107 94.1454804 293.342343 90.9502302 294.890301 90.3707807 295.180026 89.6837191 295.460645 88.8973233 295.734642 83.8064455 297.506102 81.9356513 294.27774 81.9356513 294.27774 81.9356513 294.27774 80.0565793 276.289144 77.7718927 269.841526 75.487206 263.401359 80.0565793 250.090576 79.9572451 245.198366 79.8496331 240.313607 42.0297911 203.367225 39.8609943 195.776437 38.7103731 191.736846 38.9007637 195.679192 39.8609943 190.415307 40.6970572 185.778883 49.8258704 176.773657 49.8258704 176.773657 49.8258704 176.773657 56.4564284 178.346448 63.0042079 176.259602 66.9030753 175.02703 72.8631275 174.711644 77.0517197 174.671083 79.907578 174.629693 81.9356513 174.72075 81.9356513 174.72075L83.3677194 188.0812 83.3842751 188.255035 84.8411767 201.913488C84.8411767 201.913488 93.2680282 216.714284 94.2034253 221.076711 95.1388224 225.446588 99.8158077 240.205995 100.337312 242.185229 100.858817 244.163635 97.5311211 260.279782 97.6304553 264.229144 97.7380673 268.177679 94.5097058 291.786107 94.5097058 291.786107zM80.3722965 147.114533C80.6496045 146.698985 82.3134524 137.271342 86.1949363 138.519641 90.0772481 139.767113 96.4445705 148.275916 97.971006 156.594327 99.4982694 164.912739 90.135193 162.949233 90.135193 162.949233L80.3722965 147.114533z"/>
      <path fill="#B5C6E0" d="M83.3843579,188.254787 C83.3843579,188.254787 81.1162269,189.562687 74.2787226,191.499704 C72.7224868,191.93843 70.9261933,192.418545 68.8650086,192.915216 C59.8007626,195.108846 53.8491539,205.734047 48.9652223,201.628233 C47.8725461,200.709392 41.5941514,199.403549 40.8612069,198.577266 C32.7571916,189.441222 41.6888264,178.586257 41.0514319,174.720501 C40.496816,171.343139 30.9110654,159.721037 28.5104889,156.848623 C28.1628192,156.43473 27.9641508,156.202951 27.9641508,156.202951 C27.9641508,156.202951 26.0271338,155.077163 24.0156162,153.181535 C20.9279781,150.27601 17.6499494,145.582469 20.8534774,140.408812 C21.7723188,138.935355 22.6828823,137.726789 23.6513908,136.750003 C28.3200983,132.056461 34.2884283,132.503465 47.8309913,132.635911 C64.1880233,132.79319 68.2524477,137.163895 69.7424607,138.024791 C71.2324738,138.885688 77.3249715,142.403774 79.4027119,147.668487 C80.7851129,151.186573 81.6791207,157.461184 82.0350683,162.022279 C82.217181,164.298688 82.2668481,166.152926 82.1757917,167.005545 C81.9109005,169.406122 83.2188009,186.168768 83.3678022,188.080952 L83.3843579,188.254787 Z"/>
      <path fill="#B5C6E0" d="M23.2624146,172.560065 L23.8418641,173.545129 L19.9595524,177.344663 C19.9595524,177.344663 18.709597,177.344663 17.0788605,177.286718 C15.7130153,177.237051 14.0822788,177.154272 12.7247113,176.988715 C11.5989237,176.864547 10.6552488,176.682435 10.1834113,176.442377 C10.1585778,176.425821 10.1420221,176.417543 10.1254664,176.409266 C9.14868004,175.85465 5.5312595,175.523536 3.07273799,172.973958 C1.47511291,171.318388 0.374158829,168.735699 0.779773489,164.563662 C1.79794906,154.05907 18.7509863,140.019836 23.6514736,136.750085 C22.6829651,137.726872 21.7724016,138.935438 20.8535602,140.408895 C17.6500322,145.582551 20.9280609,150.276093 24.015699,153.181618 C26.0272166,155.077246 27.9642336,156.203033 27.9642336,156.203033 C27.9642336,156.203033 28.162902,156.434813 28.5105717,156.848706 C24.3137016,158.413219 15.5805696,164.373271 15.5805696,164.373271 L18.5357622,166.078509 L19.926441,166.88146 L23.2624146,172.560065 Z"/>
      <path fill="url(#pest-control-o)" d="M35.2402155,172.833234 C35.2402155,172.833234 35.0581028,172.982236 34.7518224,173.222293 C33.1790308,174.480527 28.2205986,178.338005 26.4574165,178.528395 C24.7521793,178.718786 16.8219988,178.528395 12.724463,176.988715 C11.2013386,176.417543 10.1914408,176.020207 10.1914408,176.020207 C10.1914408,176.020207 13.8668063,174.149413 16.2011601,171.401166 C17.641506,169.711657 18.2706226,167.510577 18.5355138,166.078509 C18.7093487,165.184501 18.7424601,164.580218 18.7424601,164.580218 L22.9310523,167.005628 C22.9310523,167.005628 26.0600797,163.967657 28.6593246,163.45443 C31.2502917,162.932926 33.0697632,162.666379 33.2187645,164.00739 C33.359488,165.348402 30.9357334,164.257382 31.291681,167.005628 C31.6476286,169.662818 39.9734903,166.477501 35.2402155,172.833234"/>
      <path fill="url(#pest-control-p)" d="M47.8271834,132.63558 C47.8271834,132.63558 50.3229553,129.888989 50.9471052,126.665594 C51.5704273,123.442199 48.9016484,113.542718 48.9016484,113.542718 C48.9016484,113.542718 65.7818405,109.197675 65.5384717,108.573525 C65.2959307,107.949375 74.7575135,108.573525 74.7575135,108.573525 L76.0058133,111.589146 C76.0058133,111.589146 74.1797196,112.628844 74.3651434,114.500466 C74.5497395,116.372088 74.7003963,117.723861 74.3651434,119.595482 C74.0298905,121.467104 74.1110134,126.45782 72.3544536,126.769895 C70.5987216,127.08197 66.1270269,126.45782 66.1270269,126.45782 C66.1270269,126.45782 64.5393352,135.571733 64.6047302,135.161152 C64.9532277,132.945999 52.7144262,130.911304 47.8271834,132.63558"/>
      <path fill="url(#pest-control-q)" d="M46.9339206,130.976036 C46.9339206,130.976036 50.03232,128.640027 56.3524586,130.976036 C62.6725972,133.312874 65.0392346,132.635745 65.0392346,132.635745 L68.487787,137.166213 C68.487787,137.166213 56.3110693,136.186115 51.4610769,135.173734 C45.962101,134.025596 42.9517379,132.56087 42.9517379,132.56087 L46.9339206,130.976036 Z"/>
      <path fill="url(#pest-control-r)" d="M72.4008096,102.035844 C72.4008096,102.035844 79.0553733,100.718838 81.6893853,102.7287 C84.3233972,104.73939 84.1851571,107.720244 81.9666932,109.383264 C79.7482294,111.047112 70.8064956,111.601728 70.8064956,111.601728 L72.4008096,102.035844 Z"/>
      <path fill="url(#pest-control-s)" d="M48.9014828,113.542801 C48.9014828,113.542801 49.1514739,116.661895 54.9881861,118.603051 C60.8248983,120.544207 68.3569142,115.796032 71.360946,113.542801 C74.3649778,111.28957 76.0056478,105.086149 76.0056478,105.086149 C76.0056478,105.086149 73.5628542,91.4467356 61.9167467,93.8299287 C43.9629174,97.5036386 48.9014828,109.314475 48.9014828,113.542801"/>
      <path fill="#758AAB" d="M77.8934115,119.798455 L77.1078435,123.021022 C76.374426,124.461368 75.2213215,125.483683 73.9374269,125.823903 L72.0186212,127.036608 C69.7653904,126.486131 68.8291655,122.444056 69.5625831,119.510386 C70.2703392,116.550227 72.6800214,114.610727 74.9332523,115.161204 C75.5623689,115.318483 76.1120181,115.65953 76.5573665,116.157029 L77.0813544,116.786146 C77.6318314,117.676842 77.8934115,118.697501 77.8934115,119.798455"/>
      <path fill="#444" d="M78.8566221,119.652517 C78.8566221,120.326334 78.7597713,121.000979 78.599181,121.707079 C78.4394185,122.380896 78.214261,123.023257 77.8930804,123.601051 L78.8566221,119.652517 Z"/>
      <path fill="#444" d="M79.3060266,117.790414 L78.8565394,119.652931 C78.8565394,118.304469 78.5353588,117.05203 77.8929976,116.056205 L79.3060266,117.790414 Z"/>
      <path fill="#444" d="M81.6992359,123.262405 C81.0783971,125.802049 79.0047957,127.477486 77.0661231,127.003993 C75.1282784,126.5305 74.0587802,124.088534 74.6796189,121.548062 C75.2996299,119.008417 77.3732314,117.33298 79.3119039,117.806473 C81.2505764,118.279967 82.3192469,120.72276 81.6992359,123.262405"/>
      <path fill="#CDE1FF" d="M81.6091729,122.869455 C80.5694749,125.779947 78.1291647,128.822057 75.1805944,126.794812 C73.4513515,125.605284 72.4704263,123.165802 73.510952,120.256138 C74.5514778,117.346473 76.9859936,115.555974 78.9478441,116.257108 C80.9105223,116.958242 82.6496987,119.959791 81.6091729,122.869455"/>
      <path fill="#758AAB" d="M81.5824354,123.588552 C80.6056491,126.320242 78.3209625,128.001474 76.478313,127.342557 C74.6356635,126.68364 73.9337019,123.935394 74.9104882,121.202875 C75.8872745,118.471185 78.1719612,116.790781 80.0146106,117.449698 C81.8572601,118.107787 82.5592218,120.856861 81.5824354,123.588552"/>
      <path fill="#758AAB" d="M80.3905078,123.162491 C79.7630467,124.918223 78.2937283,125.998482 77.1099958,125.574656 C75.9254354,125.151658 75.4751203,123.385165 76.1025814,121.629433 C76.7300424,119.873701 78.1985331,118.793442 79.3830934,119.21644 C80.566826,119.640266 81.0179688,121.406759 80.3905078,123.162491"/>
      <path fill="#CDE1FF" d="M53.8730769,96.6879393 C53.8730769,96.6879393 60.1923877,97.2077883 62.1426492,100.217615 C64.0929108,103.226613 64.5316368,111.747832 64.5316368,111.747832 L68.1523685,110.206496 C68.1523685,110.206496 67.3030611,100.618263 66.0994616,99.0131874 C64.8950344,97.4081122 57.3083847,94.821284 54.5651052,95.7690979 C53.9790334,95.9710774 53.8730769,96.6879393 53.8730769,96.6879393"/>
      <path fill="#CDE1FF" d="M54.4401924,95.8229867 C54.4401924,95.8229867 60.5426236,95.7501416 62.4928851,98.7599679 C64.4431466,101.769794 65.4066884,111.375412 65.4066884,111.375412 L68.908219,109.747986 C68.908219,109.747986 67.6532969,99.1614437 66.4496975,97.5555407 C65.8106474,96.70375 64.0118706,95.4537946 62.4639126,94.4687304 C60.9109879,93.4795273 58.0087736,93.8545139 56.2869808,94.5084641 L54.4401924,95.8229867 Z"/>
      <path fill="#B5C6E0" d="M73.1315782,113.226256 C73.1315782,116.753448 70.0356622,121.219348 66.9604408,122.994947 C63.8868751,124.769718 60.5906351,122.368314 60.5906351,118.841122 C60.5906351,115.313102 63.082268,111.013587 66.1566616,109.238816 C69.2310552,107.464045 73.1315782,109.698236 73.1315782,113.226256"/>
      <path fill="#758AAB" d="M73.226194,114.252958 C73.226194,117.256162 71.104581,120.9158 68.4871248,122.427335 C65.8696685,123.93887 63.7480555,122.728649 63.7480555,119.725445 C63.7480555,116.722241 65.8696685,113.062603 68.4871248,111.551068 C71.104581,110.04036 73.226194,111.249754 73.226194,114.252958"/>
      <path fill="#EF6B59" d="M367.061152,147.744643 C364.168871,150.900987 364.657264,151.979591 358.034156,154.247722 C351.410221,156.516681 338.836166,145.097387 334.986966,144.974047 C320.24577,144.502209 320.36911,154.965412 314.7261,156.063883 C309.084745,157.161526 313.504289,154.011804 310.58883,153.337159 C311.254369,152.930716 310.538335,153.442287 311.188974,152.919127 C317.650664,147.71981 327.043541,139.189485 335.606977,142.255601 C345.033793,145.63048 352.88285,155.643368 361.45622,151.107106 C365.584384,148.923409 364.53558,148.954865 365.872453,148.319126 C367.210153,147.683387 367.548717,147.21155 367.061152,147.744643"/>
      <path fill="#EA9F96" d="M366.478309 147.99124C363.551261 150.728725 363.230908 151.308175 359.067977 153.072185 352.127827 156.012477 339.531423 144.099823 335.385048 144.009594 319.505648 143.661925 321.432731 153.517533 314.44457 155.081219 309.745234 156.132506 313.484339 153.569684 310.994362 153.018379 317.966795 147.550031 326.824095 139.308603 335.62345 142.24724 345.309362 145.481396 352.387752 155.91066 361.619211 151.019278 366.063588 148.663402 363.028928 149.77015 366.478309 147.99124M312.409543 159.507882C312.409543 159.507882 315.743861 161.087296 308.784673 162.648499 307.949438 162.836406 306.974307 163.381916 306.974307 163.381916L306.048015 164.290824C306.048015 164.290824 305.894047 164.755211 306.456113 164.54661 307.017352 164.33718 307.413861 163.963849 307.413861 163.963849 307.413861 163.963849 305.846864 165.008514 306.002487 165.111987 306.156455 165.21546 306.581937 165.430684 307.016524 165.226221 307.452767 165.02093 307.859209 164.592138 307.859209 164.592138L306.781433 165.601208C306.781433 165.601208 307.293832 166.111123 308.023938 165.673225 308.754045 165.235327 308.786328 164.703061 309.250716 164.794945 309.714275 164.887657 311.640531 164.016827 311.640531 164.016827 311.640531 164.016827 311.09916 164.390158 310.863241 164.474592 310.627322 164.558199 310.423687 165.217115 310.979131 164.991958 311.535402 164.767628 312.797774 164.316485 312.944292 163.428272 313.091638 162.540059 314.662774 161.45566 314.656173 160.973889 314.64953 160.491291 313.840784 159.266997 313.840784 159.266997L312.409543 159.507882z"/>
      <path fill="#EF6B59" d="M289.026272,163.183579 C288.73572,162.971666 288.538707,162.51804 287.728305,162.408772 C287.361596,162.359105 287.085116,162.436917 286.891414,162.536251 C286.87817,162.52549 284.428754,162.582607 283.86586,162.709258 C283.301311,162.835909 282.76739,162.888887 283.3278,163.178612 C283.88821,163.468337 285.641459,163.242352 285.641459,163.242352 C285.641459,163.242352 283.871655,163.933552 283.42879,164.085864 C282.985097,164.237349 282.211118,164.419462 282.427998,164.729881 C282.645705,165.039473 283.946983,164.599091 284.013206,164.576741 C284.079429,164.554391 285.845922,164.272116 285.845922,164.272116 C285.845922,164.272116 285.473419,164.753887 285.008204,165.007189 C284.543816,165.259664 283.924633,165.437637 283.894833,165.751368 C283.865032,166.065098 284.395643,166.109799 284.764835,165.872225 C285.134027,165.635478 286.888931,164.712498 286.888931,164.712498 C286.888931,164.712498 285.611659,165.953347 286.311137,166.00467 C286.902176,166.047715 288.585063,164.673592 289.087528,164.251421 C289.138023,164.215827 289.186862,164.176093 289.230735,164.129737 C289.25888,164.098281 289.285369,164.065998 289.310202,164.030403 C289.69595,163.469165 289.272124,163.363208 289.026272,163.183579"/>
      <path fill="#EA9F96" d="M289.897681 160.95692C289.897681 160.95692 290.255284 162.565306 290.184095 163.131511 290.112905 163.697716 289.996188 164.003169 289.231314 164.128992 288.466441 164.253988 287.641139 165.055284 287.231386 165.301136 286.821632 165.546988 286.103943 165.806912 286.103943 165.806912 286.103943 165.806912 285.797662 165.086739 286.51618 164.604968 287.235525 164.124853 287.563328 163.79705 287.563328 163.79705 287.563328 163.79705 285.84319 165.025483 285.322514 165.249813 284.802665 165.473315 283.894584 165.751451 283.894584 165.751451 283.894584 165.751451 283.584993 165.264713 284.080008 165.035417 284.573368 164.80612 285.051828 164.437756 285.845674 164.272199 286.640347 164.106642 286.843155 163.62156 286.843155 163.62156 286.843155 163.62156 284.307649 164.328488 283.676049 164.366566 283.046105 164.405472 282.428577 164.729964 282.428577 164.729964 282.428577 164.729964 282.122297 164.258954 282.981537 163.903835 283.839123 163.548715 285.76124 163.375708 286.096493 163.294585 286.431745 163.212634 286.824116 163.016449 286.824116 163.016449 286.824116 163.016449 284.634624 163.052044 284.185965 163.061149 283.737305 163.070255 283.099083 162.943604 283.099083 162.943604 283.099083 162.943604 283.142128 162.250748 283.943424 162.269787 284.743892 162.287998 287.253736 162.378227 287.520283 162.193631 287.786002 162.009862 288.501208 160.679612 288.501208 160.679612L289.897681 160.95692zM287.61076 150.658115C287.61076 150.658115 285.886483 146.784081 285.786321 147.287375 285.686159 147.790668 285.056215 148.319623 285.336834 149.553022 285.616626 150.785594 286.85582 151.816187 286.85582 151.816187L287.61076 150.658115z"/>
      <path fill="#5E3C4C" d="M314.449951,160.334426 C312.88792,161.330251 310.782035,158.920569 308.027167,160.204463 C305.27147,161.486702 303.257469,163.567754 301.798084,163.477525 C300.337872,163.38978 294.739561,167.641284 290.37879,163.607488 C289.445876,162.744936 289.141251,163.35253 287.901229,163.304518 C286.659552,163.25899 284.369899,162.414649 284.369899,162.414649 C284.369899,162.414649 283.259011,163.248229 282.479238,163.398886 C280.084455,163.86079 279.033169,162.701891 278.735994,162.413822 C278.349418,162.092641 278.458686,161.728416 278.458686,161.728416 C278.458686,161.728416 278.320446,161.85755 277.990987,161.55872 C277.225286,160.864208 277.542328,159.09937 278.839467,158.315458 C279.236804,158.076228 282.993292,154.97369 284.385626,153.686484 C285.777133,152.398451 287.165329,152.901744 287.165329,152.901744 C287.165329,152.901744 289.838246,149.738777 292.858834,149.654343 C296.504399,149.552526 297.928189,147.101454 300.736864,144.192618 C301.999236,142.88389 308.320203,139.330208 313.946657,144.527043 C318.898467,149.101383 316.011153,159.339428 314.449951,160.334426"/>
      <path fill="#6C4E5D" d="M290.616364,151.385656 C290.616364,151.385656 290.435907,149.648963 292.405208,149.647307 C294.37368,149.645651 294.649333,149.009913 295.858727,148.20365 C297.068949,147.397387 299.481114,143.089594 303.33942,141.500247 C307.198554,139.911727 311.251389,143.337102 312.540251,144.759237 C313.829112,146.179716 313.985563,148.69701 312.300193,151.240793 C310.613995,153.783749 301.346114,152.206818 299.83375,153.214233 C298.322215,154.223303 295.698964,155.533686 294.435764,155.282867 C293.173392,155.032876 290.616364,151.385656 290.616364,151.385656"/>
      <path fill="#593748" d="M288.166121,150.506548 C288.166121,150.506548 285.339235,150.861668 283.802866,152.649683 C282.497449,154.170324 282.197791,155.032049 282.250769,155.082543 C280.737578,156.127208 280.216073,157.686755 278.717782,159.098129 C277.91897,159.850585 277.760863,160.717276 278.320446,160.9325 C279.814598,161.506983 280.495037,160.584831 281.567846,160.121271 C283.435329,159.315008 285.028815,159.042667 285.482442,158.739698 C285.936068,158.437556 286.537867,156.724869 288.205027,156.925193 C288.650375,156.978171 289.643717,156.819236 290.633748,156.458322 C291.986349,155.964962 293.332327,155.09496 293.271899,153.874805 C293.16677,151.760642 290.28525,149.749952 288.166121,150.506548"/>
      <path fill="#EA9F96" d="M291.891153,157.525751 C291.891153,157.525751 292.291801,156.166528 292.872906,155.888392 C293.452356,155.611084 296.0218,153.243619 294.455631,152.540002 C292.889462,151.836385 292.714799,152.070648 291.603912,153.020945 C290.493852,153.971242 290.01622,154.406657 290.01622,154.406657 C290.01622,154.406657 291.215681,155.036601 291.603084,156.029116 C291.991315,157.022458 291.891153,157.525751 291.891153,157.525751"/>
      <path fill="#EF6B59" d="M288.166121 150.506548C288.166121 150.506548 286.748953 149.047991 286.646307 148.243384 286.543662 147.437121 285.734916 146.884988 285.786239 147.287292 285.837561 147.689595 286.698458 148.645687 286.725775 149.828592 286.753092 151.011497 286.527106 151.127387 286.527106 151.127387 286.527106 151.127387 288.294427 151.840937 288.166121 150.506548M289.841889 155.287338C289.841889 155.287338 291.053766 155.135025 291.431236 154.556403 291.807878 153.976954 292.82357 152.169899 292.82357 152.169899L290.016551 154.406574 289.841889 155.287338z"/>
      <path fill="#1A1A1A" d="M285.988384 158.132021C285.988384 158.132021 286.760707 156.706575 287.521442 156.954083 288.281348 157.20159 288.214298 157.537671 288.131519 157.957358 287.980862 158.712298 287.004076 159.588095 285.988384 158.132021M282.26898 155.092891C282.26898 155.092891 283.014814 154.299045 283.159677 153.686484 283.305367 153.074751 282.292986 153.375237 282.089351 154.010976 281.895649 154.61857 282.26898 155.092891 282.26898 155.092891"/>
      <path fill="#EA9F96" d="M278.392794,160.734163 C278.392794,160.734163 278.191642,161.086799 278.419283,161.263118 C278.646924,161.438608 279.02605,161.513936 279.454014,161.337618 C279.800856,161.195239 280.21061,160.833497 280.21061,160.833497 C280.21061,160.833497 279.353025,161.186134 278.998733,160.98581 C278.646096,160.784658 278.392794,160.734163 278.392794,160.734163"/>
      <path fill="#EA9F96" d="M278.441302,159.5972 C278.441302,159.5972 278.205383,160.162577 278.236839,160.365385 C278.267467,160.567364 278.366802,160.701465 278.366802,160.701465 C278.366802,160.701465 278.279884,161.140191 278.134194,160.97629 C277.989332,160.812389 277.928903,160.427469 278.11681,160.166716 C278.305545,159.906792 278.441302,159.5972 278.441302,159.5972"/>
      <path fill="#99A0BA" d="M280.379809 161.095905C280.370704 161.143917 280.324348 161.174545 280.276336 161.164611 280.227497 161.155506 280.196869 161.10915 280.206802 161.061138 280.215908 161.013954 280.262264 160.982498 280.310275 160.992432 280.359115 161.001538 280.389743 161.047893 280.379809 161.095905M280.97151 161.04988C280.963232 161.088786 280.925154 161.114447 280.886248 161.10617 280.847342 161.098719 280.821681 161.060641 280.829131 161.021735 280.837409 160.982002 280.875487 160.957168 280.915221 160.964618 280.954126 160.972896 280.979788 161.010974 280.97151 161.04988M281.520414 161.003359C281.513792 161.037298 281.48068 161.05882 281.446741 161.052198 281.412802 161.045576 281.39128 161.012464 281.397902 160.978525 281.403696 160.945414 281.436808 160.923063 281.470747 160.929686 281.504686 160.936308 281.527036 160.969419 281.520414 161.003359M280.111441 161.497298C280.09323 161.541998 280.04108 161.563521 279.995551 161.545309 279.950851 161.52627 279.928501 161.474948 279.948368 161.42942 279.965751 161.384719 280.018729 161.363197 280.062602 161.382236 280.10813 161.400447 280.129653 161.452598 280.111441 161.497298M280.700741 161.566832C280.685014 161.603254 280.643624 161.621466 280.606374 161.605738 280.569124 161.590838 280.550912 161.548621 280.56664 161.512198 280.58154 161.474948 280.624585 161.457564 280.661008 161.472464 280.698258 161.488192 280.716469 161.530409 280.700741 161.566832M281.24799 161.62784C281.234746 161.660123 281.198323 161.675023 281.166039 161.661779 281.134584 161.648534 281.119683 161.612112 281.1321 161.579828 281.145345 161.548372 281.182595 161.533472 281.214051 161.546717 281.246335 161.559133 281.262062 161.595556 281.24799 161.62784M279.50186 161.681977C279.469577 161.719227 279.414115 161.723366 279.376865 161.69191 279.340442 161.659627 279.335476 161.604165 279.366931 161.566915 279.399215 161.529664 279.454677 161.526353 279.491927 161.557809 279.529177 161.589265 279.533316 161.645554 279.50186 161.681977M280.040252 161.931388C280.01459 161.962016 279.968234 161.965328 279.937606 161.938838 279.907806 161.913177 279.904495 161.867649 279.930156 161.837021 279.955818 161.807221 280.001346 161.80391 280.031974 161.829571 280.062602 161.85606 280.065913 161.90076 280.040252 161.931388M280.541476 162.15936C280.519125 162.18585 280.479392 162.188333 280.45373 162.165983 280.426413 162.143632 280.42393 162.104727 280.44628 162.078237 280.468631 162.052576 280.508364 162.049265 280.534026 162.071615 280.560515 162.093965 280.563826 162.133699 280.541476 162.15936"/>
      <path fill="#FFF" d="M287.071623 157.648594C287.058379 157.712334 286.996295 157.753723 286.932555 157.740478 286.868816 157.728062 286.827427 157.665978 286.839843 157.602238 286.85226 157.539327 286.915172 157.49711 286.978911 157.510354 287.042651 157.522771 287.08404 157.584855 287.071623 157.648594M282.631136 153.900135C282.617892 153.963875 282.555808 154.005264 282.492068 153.992847 282.428329 153.979603 282.38694 153.917519 282.400184 153.853779 282.411773 153.790868 282.474685 153.748651 282.538424 153.761895 282.602164 153.774312 282.644381 153.836396 282.631136 153.900135"/>
      <path fill="#EF6B59" d="M290.057775 154.202029C290.057775 154.202029 289.66706 154.516587 289.658783 154.891573 289.649677 155.265732 289.795367 155.523173 289.795367 155.523173 289.795367 155.523173 289.917052 155.248349 290.393856 155.321194 290.87066 155.393211 291.888835 154.714427 292.106543 153.882504 292.323423 153.049752 292.803538 152.201272 293.455005 152.294812 294.104816 152.389179 294.454969 152.539836 294.454969 152.539836 294.454969 152.539836 293.613939 151.822147 292.846583 152.051443 292.079226 152.28074 290.057775 154.202029 290.057775 154.202029M294.637247 170.336138C294.448512 170.136642 294.461757 169.88334 293.364114 169.822911 293.295408 169.8196 293.230013 169.817945 293.167929 169.817945 293.069422 169.818772 292.983333 169.825395 292.90221 169.8345 291.982541 169.893273 288.972714 170.107669 288.783152 170.414778 288.558822 170.778175 291.171311 170.702847 291.171311 170.702847 291.171311 170.702847 288.871725 171.151506 288.317936 171.226835 287.764148 171.302991 287.60273 171.581127 288.134168 171.705294 288.663951 171.829462 289.231811 171.605132 289.854305 171.490898 290.477628 171.375836 291.436203 171.406464 291.436203 171.406464 291.436203 171.406464 290.190386 172.144021 290.124163 172.166371 290.058768 172.187893 288.756662 172.629103 289.171383 172.871644 289.586931 173.115012 290.23012 172.817838 290.676296 172.668008 291.122472 172.519007 293.044589 171.96108 293.044589 171.96108 293.044589 171.96108 291.897279 172.716848 292.128231 173.117496 292.359183 173.519799 292.682019 173.282225 293.139784 173.062862 293.598377 172.844327 294.773832 171.673839 294.773832 171.673839 295.011406 171.612583 295.261397 171.511593 295.34252 171.311269 295.519666 170.867576 294.859094 170.570401 294.637247 170.336138"/>
      <path fill="#EA9F96" d="M294.849077,167.881093 C294.849077,167.881093 294.190988,169.211344 293.657895,169.366967 C293.123146,169.522591 292.22831,169.996084 291.346719,169.953867 C290.465128,169.910822 289.783033,169.601231 289.408874,169.832183 C289.035543,170.063962 288.783069,170.414943 288.783069,170.414943 L291.542076,170.527522 C291.542076,170.527522 290.058686,170.903336 289.251595,170.716257 C288.444505,170.52835 288.191203,170.899197 288.106768,170.991082 C288.023162,171.083793 287.810421,171.506792 287.810421,171.506792 C287.810421,171.506792 288.82363,171.351168 289.374935,171.329646 C289.925412,171.308951 292.322678,171.130149 292.322678,171.130149 C292.322678,171.130149 289.762338,172.017535 289.438675,171.99684 C289.114183,171.976146 289.1266,172.674796 289.1266,172.674796 C289.1266,172.674796 291.106661,172.418183 291.946035,171.928134 C292.785409,171.437258 293.897125,171.355307 293.897125,171.355307 C293.897125,171.355307 292.957589,171.739399 292.593363,171.968696 C292.231621,172.19882 292.100003,172.969488 292.100003,172.969488 C292.100003,172.969488 292.562735,173.009221 293.247313,172.534901 C293.932719,172.06058 294.311845,171.579637 295.342437,171.311434 C296.440908,171.025021 295.623056,169.495274 295.790269,169.092971 C295.957482,168.689839 295.945065,167.510246 294.849077,167.881093"/>
      <path fill="#6C4E5D" d="M293.51444 165.227959C293.51444 165.227959 294.703967 165.434078 294.905118 166.443148 295.105442 167.452218 294.201501 168.913258 294.201501 168.913258 294.201501 168.913258 294.536754 169.70876 295.129448 169.975307 295.722142 170.242681 295.900944 170.128447 295.900944 170.128447 295.900944 170.128447 300.664019 166.72625 300.987683 166.249446 301.312175 165.77347 301.80719 163.941582 301.159034 162.242967 300.511706 160.544352 300.269165 158.66528 300.269165 158.66528 300.269165 158.66528 300.451278 161.513688 299.129305 163.37786 297.808161 165.241204 293.51444 165.227959 293.51444 165.227959M309.581002 148.738565C309.581002 148.738565 305.512439 151.055535 308.27724 154.979236 311.042042 158.902937 307.27976 160.579202 313.09081 162.024514 314.421889 162.3548 316.721475 160.545262 317.40357 157.047871 317.846435 154.773117 317.166824 147.813929 313.989785 147.155012 310.812746 146.496923 309.581002 148.738565 309.581002 148.738565"/>
      <path fill="#EF6B59" d="M244.371161,19.2436011 C244.919154,22.9454558 244.060741,23.7947632 242.538445,29.1910937 C241.016148,34.5882521 223.135992,38.3712296 220.550819,40.5930046 C210.648855,49.1001512 216.892009,55.369795 213.732354,59.6916606 C210.574354,64.0135262 211.302805,58.8655311 208.897262,60.1601869 C209.159669,59.3679966 208.855045,60.3232606 209.025568,59.4971311 C210.720872,51.2888148 211.325983,42.7518679 219.473871,37.7785355 C228.443749,32.3035654 238.148701,34.9433718 242.113791,25.3576213 C244.023491,20.7410642 243.177495,21.8858909 243.849656,20.4563062 C244.522645,19.0267215 244.279277,18.6194512 244.371161,19.2436011"/>
      <path fill="#EA9F96" d="M244.061569 19.8037633C243.987069 23.5842575 243.117066 23.9782831 242.026874 27.9417178 240.209886 34.5466145 223.000235 37.0216917 220.227983 39.5257414 209.609984 49.1156308 216.649468 53.46233 212.864007 59.0929237 210.320224 62.8792124 211.056953 58.4306957 208.932856 59.7236959 210.864079 50.9185466 211.235754 42.9991273 219.478837 37.7633871 228.553017 32.0003478 237.960794 35.4795282 242.175047 25.1827103 244.204776 20.2242781 242.620395 23.5064457 244.061569 19.8037633M215.605631 68.8847927C218.578207 70.339211 213.450079 72.799388 212.333397 73.3763542 212.199296 73.4458881 210.888912 74.1354331 210.607465 74.4648915 210.325191 74.7943499 210.018082 75.2479761 209.734152 75.5832291 209.719252 75.9201376 209.952687 75.9342099 210.252346 75.7901753 210.552004 75.6453129 210.966724 75.3233046 211.184432 75.0575856 210.955963 75.2620485 209.719252 76.0997669 209.894742 76.4068752 210.069405 76.7139834 210.707627 76.5682932 211.003147 76.4275698 211.300321 76.2860185 211.602463 75.9383488 211.816032 75.6817355 211.485745 76.0699667 211.154631 76.4656479 210.810273 76.8513957 211.291216 77.1088369 211.76802 77.0840033 212.236546 76.7835173 212.704245 76.4838592 212.73984 75.7686529 213.428557 75.6850466 214.116446 75.6014403 215.066743 74.8051111 215.619704 74.3009901 215.459941 74.5302865 215.166078 74.8042834 214.971548 74.9955017 214.777019 75.18672 214.632984 75.9383488 215.242234 75.4863782 215.850656 75.0344076 216.743836 74.2877455 216.806747 73.2861256 216.869659 72.2853335 218.033525 71.0444838 218.011175 70.1554427 217.989652 69.2664016 217.300107 68.9692268 216.98886 68.2929264 216.516195 68.5064949 216.061741 68.6993688 215.605631 68.8847927"/>
      <path fill="#EF6B59" d="M185.781117,79.4184398 C185.315901,79.1394763 185.075016,78.8224346 184.39706,78.8009122 C184.091607,78.7918066 184.036973,78.9101798 183.532852,79.0277253 C183.030387,79.1452708 181.247338,79.4018841 180.744872,79.5823413 C180.242407,79.7627984 179.640607,79.8894495 180.244063,80.1270238 C180.845862,80.3654259 181.852449,80.0359675 182.474943,79.918422 C181.972478,80.2023523 180.908774,80.7991853 180.501504,81.0077871 C180.093406,81.2163889 179.310321,81.4465131 179.606668,81.7817661 C179.902187,82.1186746 180.674511,81.6195202 181.112409,81.4514798 C181.551135,81.2826117 182.335875,81.0682154 182.832546,80.911764 C182.672784,81.2197 182.38637,81.5292916 182.12479,81.7503102 C181.862382,81.9705011 181.103303,82.2486368 181.172837,82.6335569 C181.243199,83.0184769 181.675303,82.9265928 182.056912,82.6128622 C182.439348,82.2983039 183.413651,81.5806143 183.904528,81.2387391 C183.823405,81.3728403 182.796124,82.6087233 183.586658,82.5325671 C184.377193,82.4564109 185.416063,81.1278159 185.991374,80.5160828 C186.04518,80.4581378 186.091536,80.4142652 186.117197,80.3712204 C186.143686,80.3290034 186.173487,80.2975475 186.182592,80.2644361 C186.33656,79.7445871 186.246332,79.6974034 185.781117,79.4184398"/>
      <path fill="#EA9F96" d="M186.529683 76.7932024C186.724212 77.5183421 186.996553 78.4024165 186.974203 79.128384 186.951025 79.8543514 186.761462 80.121726 186.112479 80.3684059 185.462668 80.6142581 184.812856 81.3435367 184.368336 81.7367346 183.924643 82.1299325 183.72763 82.1514549 183.302977 82.4254517 183.067886 81.966031 183.220198 81.5090937 183.542206 81.1705296 183.863387 80.8311378 184.19119 80.5803189 184.448631 80.2194046 183.890704 80.7558093 183.072024 81.5422051 182.497542 81.9262973 181.923059 82.3095618 181.665618 82.3592289 181.125902 82.6522648 180.996767 82.3310842 180.873427 82.1820829 181.245103 81.8882192 181.616778 81.5951833 182.358474 81.107618 182.815411 80.9172274 183.271521 80.7268368 183.558762 80.5480353 183.717697 80.1308316 182.895706 80.5033349 181.525722 81.0645731 180.795616 81.2682082 180.065509 81.4718434 180.082065 81.5124048 179.531588 81.8211686 179.427287 81.3708536 179.50096 81.2077799 180.042331 80.8899105 180.583703 80.5712133 182.303012 80.1068259 182.86425 79.921402 183.426316 79.7351504 183.24917 79.7103168 183.623329 79.524893 182.876667 79.6358162 181.714457 79.8195845 181.096929 79.9073297 180.479402 79.9959027 180.461191 79.9396133 179.933891 79.9470634 180.10276 79.4553591 180.043159 79.2806964 180.760021 79.1557009 181.476883 79.0307053 183.463567 79.0803724 184.116689 78.6019127 184.770639 78.1226252 184.645644 77.3950021 185.033875 76.8230027 185.514818 76.8205193 186.0297 76.8023081 186.529683 76.7932024M187.665404 72.4691846C187.362434 72.224988 184.945302 69.6737546 184.708555 70.2532041 184.472637 70.8318258 184.590182 71.8748349 185.031392 72.6206693 185.473429 73.3656758 186.455182 73.8656579 187.326012 74.0510818 187.453491 73.5254383 187.583453 73.0238006 187.665404 72.4691846"/>
      <path fill="#5E3C4C" d="M218.865035,68.818901 C216.895734,72.5969118 214.692998,69.2865995 212.579663,71.7459488 C210.466328,74.2044703 210.249448,75.5893547 206.959003,77.505677 C203.670213,79.4219993 201.421121,83.7835986 196.18952,83.3142445 C195.07201,83.2140825 194.377498,83.9135608 193.269922,84.4524489 C192.161518,84.9913369 190.478631,85.2852006 189.168247,85.4433076 C188.918256,85.9871623 188.138483,86.7992194 187.778396,87.1104666 C186.671648,88.0665583 184.872043,88.1129142 183.994591,87.8116005 C183.116311,87.5111145 183.689138,87.6129321 183.290146,87.25119 C183.103894,87.1957284 183.123761,87.5922375 182.749602,87.2139397 C181.882911,86.334832 181.222339,85.6063812 182.421799,83.662742 C182.78768,83.0692201 184.905982,78.6140811 185.476326,77.3930982 C186.04667,76.1712875 186.874455,75.3087355 188.004382,75.0007995 C189.530817,71.8038938 190.027488,70.5348993 193.13251,68.0076717 C196.879065,64.9556283 197.600065,62.3828725 200.779588,56.7671789 C202.210828,54.2416068 208.760263,49.8154403 213.756774,52.7772551 C218.154795,55.3831223 220.834335,65.0408902 218.865035,68.818901"/>
      <path fill="#6C4E5D" d="M191.088129,71.4101992 C190.867938,69.774496 191.115446,69.5600997 192.577314,68.3432557 C194.037527,67.1264117 194.646777,66.7721198 196.091262,64.2291642 C197.534919,61.6862086 199.41813,56.1160432 202.244188,53.6823552 C205.069418,51.2486673 209.573396,51.484586 212.210719,53.305713 C214.847215,55.1268401 215.126178,56.7708211 214.000391,59.9255098 C212.873775,63.0801986 204.245772,65.011421 202.073664,67.2729297 C199.902384,69.5352661 199.047282,71.8464419 196.750179,72.7031994 C194.452247,73.5591291 193.074813,71.7926359 191.088129,71.4101992"/>
      <path fill="#593748" d="M188.201394,72.0265679 C186.687376,73.0174266 185.20564,75.0305998 184.620396,76.4577012 C184.12207,77.6695784 183.838967,78.5023302 184.037636,79.6090787 C183.202401,81.0560469 183.100583,83.2157381 182.454083,84.6569118 C182.109724,85.4250963 182.233064,86.4714165 182.778575,86.5111502 C184.232165,86.6154511 184.74622,85.3340399 185.386925,84.621317 C186.499468,83.3788117 187.648434,82.9748526 188.483669,81.6537077 C189.318904,80.3325628 188.953851,79.2663757 190.752628,78.3169063 C191.233571,78.0627763 192.519949,77.0959234 193.085326,76.3732671 C193.857649,75.3873751 195.637387,73.6515099 194.833608,72.1772248 C193.439618,69.6226802 190.123511,70.4819211 188.201394,72.0265679"/>
      <path fill="#EA9F96" d="M194.848756,76.6716008 C194.886007,75.8371935 194.726244,75.1815878 195.290794,74.3910531 C195.856171,73.6013462 197.542369,70.1511382 195.776703,70.0807765 C194.011038,70.0104147 193.488706,71.2024252 192.847172,72.285168 C192.205639,73.367083 192.117894,73.798359 191.608806,74.7643841 C192.386924,74.6592554 193.365366,74.9183521 193.905081,75.346317 C194.445625,75.7751096 194.628566,76.1078792 194.848756,76.6716008"/>
      <path fill="#EF6B59" d="M188.186825 72.0023138C187.49728 71.9153964 186.113224 71.1910845 185.865716 70.754014 185.618208 70.3169435 184.384809 69.6687879 184.686123 70.1737367 184.987436 70.6778578 186.209247 71.5544821 186.425299 72.1355872 186.641351 72.7166923 186.896309 73.0618787 186.74234 73.576761 187.618965 73.3722981 188.479861 73.0593953 188.186825 72.0023138M191.756648 75.7483722C192.358448 75.1780283 192.92217 74.8676089 193.178783 73.9562176 193.433741 73.0448263 193.596814 71.7054701 193.817833 70.7096448 193.072826 72.0390675 192.341064 73.4032572 191.611786 74.7508912 191.660625 75.0861442 191.706153 75.4031858 191.756648 75.7483722"/>
      <path fill="#1A1A1A" d="M188.78341 80.8468657C188.845494 80.1432484 189.237864 79.0596778 189.914992 78.8552149 190.592948 78.650752 190.908334 78.716147 190.983663 79.4470812 191.118592 80.7616038 189.996115 81.350159 188.78341 80.8468657M184.070582 79.5886324C184.177366 78.9884883 184.443913 78.5654902 184.280839 77.8958121 184.117765 77.2253062 183.410837 78.2608653 183.474576 78.6548909 183.538316 79.0489166 183.720428 79.3634749 184.070582 79.5886324"/>
      <path fill="#EA9F96" d="M182.820792,86.3600795 C182.867975,86.5645424 182.804236,86.7458273 183.093961,86.8294336 C183.383686,86.9138676 183.814962,86.7458273 184.031841,86.5049418 C184.248721,86.2632286 184.377028,86.0264821 184.505334,85.7500019 C184.272727,86.0239987 183.820756,86.3360737 183.502887,86.3484905 C183.184189,86.3600795 183.099755,86.3037901 182.820792,86.3600795"/>
      <path fill="#EA9F96" d="M182.414184,85.2917401 C182.393489,85.5028253 182.472956,85.904301 182.530074,86.0566135 C182.585535,86.2089259 182.750264,86.2834266 182.773442,86.328127 C182.833043,86.4481558 182.892643,86.7469862 182.681558,86.6633799 C182.469645,86.5806014 182.302433,86.1898869 182.349617,85.9481736 C182.3968,85.7064604 182.403423,85.5160699 182.414184,85.2917401"/>
      <path fill="#99A0BA" d="M184.771467 85.9239195C184.783884 85.9719311 184.755739 86.0158037 184.707728 86.0257371 184.659716 86.0356705 184.615016 86.006698 184.602599 85.9586865 184.59101 85.9115028 184.618327 85.8668024 184.666338 85.8568689 184.715178 85.8469355 184.759878 85.875908 184.771467 85.9239195M185.286349 85.6531511C185.296283 85.6920569 185.273933 85.7284795 185.235027 85.7367573 185.195293 85.7450352 185.158043 85.7210294 185.148937 85.6821235 185.138176 85.6432176 185.161354 85.6067951 185.20026 85.599345 185.239166 85.5910672 185.277244 85.6142452 185.286349 85.6531511M185.800487 85.3746014C185.808765 85.4101961 185.784759 85.441652 185.75082 85.4499298 185.716053 85.4582077 185.681286 85.4408242 185.673008 85.4044017 185.66473 85.3688069 185.687908 85.3381789 185.722675 85.329901 185.757442 85.3216232 185.792209 85.3390066 185.800487 85.3746014M184.698705 86.3940186C184.701188 86.442858 184.664766 86.4801083 184.615099 86.4801083 184.567087 86.4809361 184.527353 86.4445135 184.52487 86.3948464 184.523214 86.3460071 184.558809 86.3087568 184.608476 86.3087568 184.656488 86.307929 184.696221 86.3443515 184.698705 86.3940186M185.260523 86.2298689C185.262178 86.2696026 185.233206 86.3002306 185.192644 86.3010584 185.15291 86.3010584 185.120627 86.2712581 185.118971 86.2306967 185.116488 86.190963 185.146288 86.1611627 185.186022 86.1603349 185.226583 86.1595071 185.258867 86.1901352 185.260523 86.2298689M185.800487 86.0617457C185.801314 86.0981683 185.772342 86.1246574 185.736747 86.126313 185.701152 86.1279685 185.671352 86.1039628 185.670524 86.0675402 185.669697 86.0311177 185.698669 86.0046286 185.734264 86.002973 185.769859 86.0013174 185.799659 86.0253232 185.800487 86.0617457M184.225791 86.7973983C184.212547 86.844582 184.166191 86.86776 184.119007 86.8528599 184.072651 86.8387875 184.045334 86.7924316 184.059406 86.7452478 184.072651 86.6972363 184.119007 86.6748861 184.166191 86.6889584 184.212547 86.7038586 184.239864 86.7493868 184.225791 86.7973983M184.81832 86.8171823C184.806731 86.8560882 184.768653 86.8751273 184.731402 86.8627105 184.692496 86.8511215 184.670146 86.8138712 184.681735 86.7749653 184.692496 86.7352316 184.731402 86.7170204 184.768653 86.7286094 184.806731 86.7410261 184.829909 86.7782765 184.81832 86.8171823M185.368052 86.8321653C185.358118 86.8661044 185.325007 86.8818324 185.291896 86.8718989 185.258784 86.8611377 185.239745 86.8288541 185.248851 86.7949149 185.258784 86.7618035 185.291896 86.7452478 185.325007 86.756009 185.357291 86.7659425 185.377157 86.7982261 185.368052 86.8321653"/>
      <path fill="#FFF" d="M189.738177 79.7519544C189.753077 79.8272829 189.698444 79.895989 189.629737 79.9208226 189.561031 79.9448283 189.489842 79.9183392 189.475769 79.8430108 189.461697 79.7685101 189.514675 79.6989762 189.584209 79.6741426 189.652915 79.6501369 189.724105 79.676626 189.738177 79.7519544M183.911316 78.336442C183.925388 78.4010093 183.888966 78.4606098 183.824398 78.4746821 183.759831 78.4887545 183.701058 78.4490208 183.686986 78.3852814 183.672086 78.3215419 183.709336 78.2611136 183.773076 78.2470413 183.837643 78.2329689 183.896416 78.2727026 183.911316 78.336442"/>
      <path fill="#EF6B59" d="M191.633805 74.3922948C191.291102 75.1257123 191.405336 75.0172724 191.420236 75.4253705 191.435964 75.8326407 191.657811 75.7473788 191.779495 76.0222035 191.999686 75.5909275 191.892902 75.715923 192.43179 75.3757034 192.969022 75.0354837 193.773629 73.7582114 193.648634 72.8989706 193.52281 72.0397297 193.875447 70.8278525 194.497113 70.4619715 195.11878 70.0969183 195.192453 70.209497 195.745413 69.9992397 194.927562 70.0513901 194.477246 69.9470892 193.765351 70.633323 193.055112 71.3212123 191.976508 73.6588772 191.633805 74.3922948M204.259099 87.5779168C203.766567 87.3941485 203.437937 87.5174885 202.968582 87.861847 202.938782 87.8833695 202.855176 87.9396588 202.809648 87.9793925 202.76412 88.019954 202.656508 88.1143215 202.598563 88.173922 201.939646 88.8444279 199.79651 90.2715292 199.758432 91.0612361 199.719526 91.8501153 201.647438 90.2773237 201.72856 90.1920619 201.279073 90.7980005 200.251792 91.712703 199.722837 92.1001063 199.193055 92.486682 199.262589 92.7283952 199.754293 92.6439611 200.24517 92.5603548 200.736874 92.0487837 201.1458 91.7383643 201.553898 91.4271171 201.958685 91.0397137 202.387477 90.7748225 202.252548 91.1680204 201.997591 91.9933221 201.770778 92.2557299 201.544792 92.5181378 200.79813 93.1687768 201.279901 93.2763889 201.7625 93.3831731 202.146592 92.9941142 202.536479 92.5032377 202.925538 92.0115333 203.585282 90.9734909 203.972686 90.3766579 203.886596 90.7648891 203.494226 91.7913425 203.918052 92.0703061 204.341878 92.3500974 204.481773 91.88571 204.676303 91.3724833 204.870832 90.8600844 204.964372 89.5927455 205.134068 88.9603178 205.211052 88.670593 205.42876 88.4677857 205.349292 88.20455 205.17463 87.6209616 204.751631 87.7616851 204.259099 87.5779168"/>
      <path fill="#EA9F96" d="M203.004508,84.8427495 C203.079009,85.5811338 203.248705,86.4759694 202.915935,87.1713088 C202.582338,87.8683038 202.018616,88.8169454 201.463173,89.2175933 C200.906901,89.6182413 200.066699,89.7250256 199.833264,90.1918963 C199.599001,90.6587671 199.709924,90.73989 199.628801,91.1562659 C200.433408,90.7150565 201.204904,90.2630858 201.94246,89.7631037 C201.570785,90.3243419 200.797633,91.024648 200.240534,91.2092441 C199.684263,91.394668 199.486422,91.6189977 199.379638,91.9807397 C199.273681,92.341654 199.407782,92.3308928 199.353976,92.6322066 C199.891209,92.2721201 200.033588,92.1032519 200.683399,91.7572378 C201.33321,91.4103959 202.362975,90.5453605 202.912624,89.9394219 C202.601377,90.705123 201.670119,91.9741175 201.115503,92.3449652 C200.560059,92.7149851 201.151098,92.838325 201.102258,93.1520556 C201.997922,92.6678013 202.708989,91.8971335 203.085631,91.0544483 C203.462273,90.2125909 203.725509,89.7871094 204.291714,89.161304 C204.079801,89.6496971 203.779315,90.1587849 203.649353,90.6488336 C203.519391,91.1388824 203.679153,91.5204913 203.793387,91.998951 C204.182446,91.5312525 204.277642,91.4832409 204.464721,90.751479 C204.650973,90.0188892 204.88358,89.0487252 205.359557,88.1464395 C205.834705,87.2449816 204.804113,86.3534572 204.469688,85.5322944 C204.134435,84.7103039 203.771037,84.0265535 203.004508,84.8427495"/>
      <path fill="#6C4E5D" d="M199.337669 83.0024179C200.040459 82.8476221 201.668712 82.6762706 202.242367 83.3898213 202.815194 84.1025442 203.003929 85.3765053 203.099952 86.3458416 203.416994 86.5014651 204.02376 87.1247873 204.405369 86.8367181 204.787806 86.5486489 204.877206 87.4542457 205.149548 86.3143857 205.423544 85.1753535 206.7182 81.646506 207.276127 80.1929155 207.834054 78.7401528 206.81919 77.4546027 206.114745 76.3925545 205.409472 75.3313341 204.484836 74.3222641 204.012999 73.1087313 204.433514 74.8520466 205.044419 76.4140769 204.476558 78.2799043 203.908698 80.1465595 200.943572 81.8815969 199.337669 83.0024179M210.955797 57.7582031C209.267116 60.3582759 209.102387 62.8581866 211.430946 65.5393823 213.761161 68.220578 212.918476 72.7974014 218.352056 71.489501 219.59539 71.1906706 221.31801 67.2429639 220.654127 64.3465441 220.222023 62.4625054 217.815652 55.1424024 214.891915 55.2226976 211.968178 55.302165 212.168502 56.1224999 210.955797 57.7582031"/>
      <path fill="#B5C6E0" d="M97.6304553,264.229144 C97.7380673,268.177679 94.5097058,291.786107 94.5097058,291.786107 C94.5097058,291.786107 94.1454804,293.342343 90.9502302,294.890301 C89.9486103,284.120818 91.9435722,253.054046 93.0693598,245.852317 C94.4352051,237.160574 78.0533396,209.015883 74.5021418,205.108738 C72.0022311,202.352214 72.9210724,196.723276 74.2786399,191.499952 C74.8498115,189.3146 75.5037617,187.194642 76.0087106,185.390899 C76.5881601,183.321436 76.8944405,179.207345 77.0517197,174.671083 C77.3414444,165.788949 77.5028625,160.138489 77.5028625,160.138489 L82.241104,162.973653 C82.4223889,165.250061 82.2667653,166.153175 82.175709,167.005793 C81.9108178,169.40637 83.2187181,186.169017 83.3677194,188.0812 L83.3842751,188.255035 L84.8411767,201.913488 C84.8411767,201.913488 93.2680282,216.714284 94.2034253,221.076711 C95.1388224,225.446588 99.8158077,240.205995 100.337312,242.185229 C100.858817,244.163635 97.5311211,260.279782 97.6304553,264.229144"/>
      <path fill="#A8B7CF" d="M48.7568999,209.116566 C48.7568999,209.116566 48.7417203,213.436338 46.8460926,221.366518 C44.9421871,229.296699 45.0911884,237.359325 41.796604,241.19197 C38.5020196,245.024614 36.8547274,251.183335 37.376232,260.933815 C37.7487353,267.72993 38.8083001,278.409184 39.4125832,284.252519 C37.2189529,283.904849 36.6395033,281.231931 36.6395033,281.231931 C36.6395033,281.231931 32.7571916,259.014181 32.7571916,253.302464 C32.7571916,247.58992 38.9159121,241.167136 38.5020196,237.698717 C38.1460721,234.743524 39.6609187,212.334556 40.1079226,205.720554 C39.9809955,203.92702 39.9809955,201.092738 40.1079226,197.217709 L48.7568999,209.116566 Z"/>
      <path fill="#B5C6E0" d="M34.7519879 173.222128C33.1791964 174.481189 28.2207641 178.338667 26.457582 178.52823 24.7523449 178.719448 16.8221644 178.52823 12.7246286 176.98855 11.5988409 176.864382 10.655166 176.683097 10.1833285 176.443039 10.158495 176.425656 10.1419393 176.417378 10.1253836 176.409928 9.14859726 175.855312 5.53117673 175.52337 3.07265522 172.973792 2.311093 168.611365 11.375339 161.219245 24.0156162 153.181452 26.0271338 155.07708 27.9641508 156.202868 27.9641508 156.202868 27.9641508 156.202868 28.1628192 156.434648 28.5104889 156.84854 24.3136188 158.413054 15.5804869 164.373106 15.5804869 164.373106L18.5356794 166.078343 19.9263582 166.881295 34.7519879 173.222128zM66.7134298 143.233049C66.7134298 143.233049 65.399735 136.625669 70.8059989 136.186115 76.2130907 135.746562 81.4645589 135.918741 84.0290368 139.113991 86.5935148 142.309241 98.1584994 154.105178 98.4821633 158.26397 98.8058272 162.423589 97.7396401 168.16014 93.0717604 167.002068 88.4030529 165.843997 76.0748506 159.812755 71.7769908 155.26656 67.4791309 150.718709 66.7134298 143.233049 66.7134298 143.233049"/>
      <path fill="#5B7D87" d="M19.0406283,200.017612 L19.0406283,213.080059 C17.6665051,212.881391 16.1847699,212.45922 14.6037005,211.639713 L14.6037005,198.577266 C16.1847699,199.388495 17.6665051,199.818943 19.0406283,200.017612"/>
      <path fill="url(#pest-control-t)" d="M134.880236,128.2239 C141.759958,125.730611 146.705145,158.923963 169.744886,148.776974 C181.464666,143.614906 181.770947,145.828404 189.464381,154.707226 C197.527834,164.014013 207.04074,161.163949 215.830161,156.026715 C215.949362,158.1028 220.665254,175.702337 234.993384,181.864369 C238.220918,183.252564 248.948184,180.486935 248.948184,180.486935 C248.948184,180.486935 259.321986,203.095399 284.856671,189.550353 C289.145425,187.276427 300.755938,172.367191 300.755938,172.367191 C300.755938,172.367191 308.961771,171.999655 312.357345,171.446694 C319.877772,170.2224 327.282309,167.480776 334.205075,163.324468 C343.31816,157.851153 352.230921,148.693368 354.151383,136.046468 C355.508122,127.116323 353.077745,112.762531 348.75588,105.685797 C347.42894,103.52445 355.727485,89.2716477 357.120647,84.9257764 C359.257988,78.2604514 361.390363,71.1050777 360.361426,64.1268499 C359.68347,59.5301597 357.690991,55.5046412 355.736591,51.6024626 C352.621636,45.3775192 349.27159,38.8777513 344.103728,35.6055171 C340.904339,33.5799271 333.658737,32.76042 333.658737,32.76042 C333.658737,32.76042 329.642324,-3.86327269 294.639434,16.2808758 C293.906017,16.7030461 283.913824,0.365880979 268.243853,0.365880979 C249.986227,0.365880979 242.417788,14.6451726 242.417788,14.6451726 C242.417788,14.6451726 233.490127,-0.2044629 212.348497,9.73971855 C198.185096,16.4009046 200.613817,31.4450696 200.613817,31.4450696 C200.613817,31.4450696 189.230117,30.2605092 179.24703,39.8661266 C164.636624,53.9252274 176.478917,65.7451697 173.00222,67.8700938 C143.913027,85.6558827 135.592131,126.931727 134.62114,125.518698 L134.880236,128.2239 Z" opacity=".166"/>
    </g>
  </g>
</svg>
